<svg width="49" height="43" viewBox="0 0 49 43" fill="none" xmlns="http://www.w3.org/2000/svg">
<g clip-path="url(#clip0_107_58)">
<path fill-rule="evenodd" clip-rule="evenodd" d="M41.6576 9.26802L34.7778 3.67257V1.59471C34.7796 1.21082 34.9316 0.843175 35.2007 0.571768C35.4698 0.30036 35.8342 0.147161 36.2147 0.145497H40.2217C40.602 0.147713 40.966 0.301125 41.2348 0.572444C41.5036 0.843762 41.6555 1.21109 41.6576 1.59471V9.26802ZM22.4222 6.34108L2.75877 22.4893H2.43208C-0.272367 22.4893 -0.673279 19.7206 0.988907 18.3547L22.4196 0.756722C23.0037 0.267435 23.739 -0.000396729 24.4981 -0.000396729C25.2573 -0.000396729 25.9926 0.267435 26.5766 0.756722L48.0074 18.3547C49.669 19.7206 49.2692 22.4893 46.5637 22.4893H46.237L26.5782 6.34215C25.9932 5.85487 25.2583 5.58833 24.4997 5.58833C23.7411 5.58833 23.0062 5.85487 22.4212 6.34215L22.4222 6.34108ZM35.542 17.089C30.5063 18.9416 24.8266 22.1185 21.3052 26.7927C19.5851 29.0501 18.8016 31.8935 19.1198 34.7228C19.2859 37.2228 20.232 39.6055 21.8227 41.5296C22.3637 35.4168 25.0504 28.0331 32.5997 20.5654C32.7215 20.4436 32.7895 20.3798 32.7895 20.3798C32.7262 20.441 32.6635 20.5037 32.5997 20.5654C31.2454 21.9392 24.1241 34.2408 25.9457 42.9999C40.4177 39.1812 33.4397 25.4832 35.668 17.2366C35.6363 17.1797 35.5934 17.1298 35.542 17.09V17.089ZM17.4252 33.8474C17.3816 32.7587 17.4977 31.6695 17.7697 30.6151C13.9937 28.2677 9.79066 26.9888 8.91513 26.9382C12.1522 27.0373 15.3475 27.7036 18.3582 28.9074C18.811 27.8833 19.4141 26.9339 20.1474 26.0913C20.2473 25.9784 20.3518 25.8708 20.4532 25.7574C17.1424 23.5219 10.1038 24.6347 5.68328 26.5047C5.67528 26.5518 5.67528 26.6 5.68328 26.6471C9.2345 29.149 9.64325 35.8825 16.982 37.2046C17.2976 37.2602 17.6161 37.2984 17.9359 37.3191C17.5944 36.1945 17.4222 35.0246 17.4252 33.8484V33.8474Z" fill="#062B4C"/>
</g>
<defs>
<clipPath id="clip0_107_58">
<rect width="49" height="43" fill="white"/>
</clipPath>
</defs>
</svg>
