<svg xmlns="http://www.w3.org/2000/svg" viewBox="0 0 254.154 285.118">
  <defs>
    <style>
      .cls-1 {
        fill: #2269d1;
      }

      .cls-2 {
        fill: #062b4c;
      }
    </style>
  </defs>
  <g id="experience_icon" data-name="experience icon" transform="translate(-552.814 -238.329)">
    <g id="experience_stars" data-name="experience stars" transform="translate(-3631 -2084)">
      <path id="Path_2124" data-name="Path 2124" class="cls-1" d="M4269.157,2508.726l14.5,29.382a2.2,2.2,0,0,0,1.654,1.2l32.424,4.712a2.2,2.2,0,0,1,1.217,3.746l-23.462,22.871a2.2,2.2,0,0,0-.632,1.944l5.539,32.293a2.2,2.2,0,0,1-3.187,2.315l-29-15.246a2.194,2.194,0,0,0-2.045,0l-29,15.246a2.2,2.2,0,0,1-3.186-2.315l5.538-32.293a2.194,2.194,0,0,0-.631-1.944l-23.463-22.871a2.2,2.2,0,0,1,1.217-3.746l32.425-4.712a2.2,2.2,0,0,0,1.653-1.2l14.5-29.382A2.2,2.2,0,0,1,4269.157,2508.726Z"/>
      <path id="Path_2125" data-name="Path 2125" class="cls-1" d="M4360.89,2483.576l12.514,25.356a1.9,1.9,0,0,0,1.427,1.037l27.982,4.066a1.9,1.9,0,0,1,1.05,3.233L4383.616,2537a1.9,1.9,0,0,0-.546,1.678l4.78,27.868a1.9,1.9,0,0,1-2.75,2l-25.027-13.158a1.9,1.9,0,0,0-1.764,0l-25.028,13.158a1.9,1.9,0,0,1-2.75-2l4.78-27.868a1.9,1.9,0,0,0-.545-1.678l-20.248-19.736a1.9,1.9,0,0,1,1.051-3.233l27.981-4.066a1.9,1.9,0,0,0,1.427-1.037l12.514-25.356A1.9,1.9,0,0,1,4360.89,2483.576Z"/>
      <path id="Path_2126" data-name="Path 2126" class="cls-1" d="M4404.064,2430.731l9.743,19.741a1.475,1.475,0,0,0,1.111.808l21.786,3.165a1.476,1.476,0,0,1,.817,2.518l-15.764,15.366a1.476,1.476,0,0,0-.424,1.306l3.721,21.7a1.476,1.476,0,0,1-2.141,1.556l-19.486-10.245a1.474,1.474,0,0,0-1.373,0l-19.486,10.245a1.476,1.476,0,0,1-2.141-1.556l3.721-21.7a1.479,1.479,0,0,0-.424-1.306l-15.765-15.366a1.476,1.476,0,0,1,.818-2.518l21.786-3.165a1.477,1.477,0,0,0,1.111-.808l9.743-19.741A1.476,1.476,0,0,1,4404.064,2430.731Z"/>
      <path id="Path_2127" data-name="Path 2127" class="cls-1" d="M4404.711,2377.566l6.947,14.076a1.054,1.054,0,0,0,.793.576l15.534,2.257a1.052,1.052,0,0,1,.583,1.795l-11.241,10.957a1.051,1.051,0,0,0-.3.932l2.653,15.471a1.052,1.052,0,0,1-1.526,1.109l-13.9-7.3a1.052,1.052,0,0,0-.979,0l-13.894,7.3a1.052,1.052,0,0,1-1.527-1.109l2.653-15.471a1.051,1.051,0,0,0-.3-.932l-11.241-10.957a1.053,1.053,0,0,1,.583-1.795l15.535-2.257a1.053,1.053,0,0,0,.792-.576l6.947-14.076A1.052,1.052,0,0,1,4404.711,2377.566Z"/>
    </g>
    <g id="experience_person" data-name="experience person" transform="translate(-3630 -2082)">
      <path id="Path_816" data-name="Path 816" class="cls-2" d="M4322.658,2575.781a126.139,126.139,0,0,1-14.9,5.123l-.938-5.508,12.879-12.562-.3,1.809a13.119,13.119,0,0,0,2.906,10.731C4322.409,2575.51,4322.533,2575.657,4322.658,2575.781Z"/>
      <path id="Path_817" data-name="Path 817" class="cls-2" d="M4347.433,2478.409c-.022.045-.056.1-.079.158l-10.324,20.92-23.091,3.358a13.2,13.2,0,0,0-7.316,22.514l6.774,6.6-21.723-3.155-12.382-25.081a13.494,13.494,0,0,0-24.21,0l-12.382,25.081-27.682,4.026a13.506,13.506,0,0,0-7.486,23.034l20.026,19.528-.373,2.172a133.725,133.725,0,0,1-38.662-22.2c-2.917-2.374-5.077-7.191-5.326-11.036-1.764-26.743,2.171-52.175,20.309-73.388a189.915,189.915,0,0,1,14.215-14.26,93.438,93.438,0,0,0,109.81,0,187.629,187.629,0,0,1,14.214,14.26A82.119,82.119,0,0,1,4347.433,2478.409Z"/>
      <circle id="Ellipse_3" data-name="Ellipse 3" class="cls-2" cx="61.159" cy="61.159" r="61.159" transform="translate(4199.053 2439.375) rotate(-76.717)"/>
    </g>
  </g>
</svg>
