<svg xmlns="http://www.w3.org/2000/svg" viewBox="0 0 327.771 244.58">
  <defs>
    <style>
      .cls-1 {
        fill: #2269d1;
      }

      .cls-2 {
        fill: #062b4c;
      }

      .cls-3 {
        fill: #fff;
      }
    </style>
  </defs>
  <g id="money_is_time" data-name="money is time" transform="translate(-1189.671 -672.751)">
    <path id="Path_2378" data-name="Path 2378" class="cls-1" d="M5859.276,1035.9h0a8.525,8.525,0,0,0,8.5-8.5v-18.105c0-4.675-3.825-3.664-8.5-3.664,0,0-8.5-1.011-8.5,3.664V1027.4A8.525,8.525,0,0,0,5859.276,1035.9Z" transform="translate(-4441 -308)"/>
    <path id="Path_2379" data-name="Path 2379" class="cls-1" d="M5842.139,1018.411h34.275c8.3,0,15.094-6.161,15.094-13.691h0c0-7.531-6.792-13.692-15.094-13.692h-34.275c-8.3,0-15.094,6.161-15.094,13.692h0C5827.045,1012.25,5833.838,1018.411,5842.139,1018.411Z" transform="translate(-4441 -308)"/>
    <path id="Path_2380" data-name="Path 2380" class="cls-1" d="M5760.113,1126.161c0,1.22.02,2.44.07,3.65,0,.11.009.23.009.35.051,1.01.091,2.02.161,3.03l.04-.01a98.168,98.168,0,0,0,23.009,56.83q2.7,3.225,5.75,6.27t6.271,5.75a98.416,98.416,0,0,0,44.49,21.39c3.17.63,6.379,1.09,9.589,1.4l-.009.03.529.03c.541.06,1.091.08,1.641.13,1.109.08,2.22.16,3.35.21.71.03,1.429.04,2.139.05s1.411.06,2.131.06c.259,0,.509-.02.77-.02.81-.01,1.62-.04,2.429-.07.931-.03,1.861-.06,2.781-.11.75-.05,1.5-.11,2.25-.17.989-.08,1.989-.17,2.969-.28.681-.08,1.351-.17,2.02-.26,1.061-.14,2.111-.29,3.161-.47.62-.1,1.23-.21,1.839-.33,1.1-.2,2.181-.42,3.261-.65.29-.07.58-.12.88-.18.46-.11.92-.23,1.39-.35.509-.13,1.03-.25,1.55-.38,1.27-.34,2.53-.7,3.79-1.08.45-.14.89-.29,1.34-.43.96-.31,1.92-.63,2.87-.97l1.319-.48c1.311-.49,2.62-1,3.921-1.55.09-.03.179-.08.27-.11,1.27-.54,2.53-1.12,3.78-1.72.27-.12.54-.25.81-.38,1.28-.63,2.56-1.28,3.83-1.97a.085.085,0,0,0,.04-.02c1.37-.74,2.719-1.52,4.06-2.33.09-.06.179-.11.26-.16,1.21-.74,2.4-1.51,3.58-2.3l.449-.3c2.461-1.67,4.85-3.46,7.191-5.37.23-.2.47-.4.71-.59.88-.74,1.75-1.5,2.62-2.27.28-.26.559-.51.849-.77,1.051-.96,2.091-1.94,3.111-2.96l.03-.03c1.02-1.02,2-2.06,2.96-3.11.26-.28.5-.56.75-.83.359-.4.72-.79,1.069-1.19l-.019-.02a98.716,98.716,0,0,0,1.769-127.81l.031-.01c-.35-.43-.721-.84-1.08-1.26-.491-.57-.98-1.15-1.48-1.71-.6-.68-1.23-1.36-1.86-2.03-.54-.57-1.08-1.15-1.63-1.71-.18-.18-.35-.37-.53-.55-.451-.46-.93-.88-1.391-1.32-.589-.57-1.179-1.15-1.789-1.7-.731-.68-1.481-1.33-2.24-1.97-.52-.46-1.04-.92-1.571-1.36-.939-.77-1.889-1.51-2.839-2.24-.38-.29-.74-.59-1.121-.87q-1.875-1.4-3.8-2.69a2.749,2.749,0,0,1-.28-.2.208.208,0,0,1-.06-.04c-.49-.32-.98-.63-1.47-.95-.72-.46-1.45-.92-2.181-1.36-.469-.29-.939-.58-1.42-.86-1.059-.62-2.139-1.22-3.23-1.8-.449-.24-.909-.48-1.359-.71-1.05-.54-2.121-1.07-3.19-1.58-.25-.11-.5-.23-.75-.35-1.19-.55-2.411-1.07-3.63-1.58-.29-.12-.58-.24-.87-.35-1.36-.55-2.721-1.07-4.11-1.55-.02-.01-.04-.01-.06-.02-1.43-.5-2.87-.96-4.33-1.4-.11-.03-.21-.06-.32-.1-2.96-.87-5.99-1.61-9.06-2.21l-.171-.03c-1.519-.29-3.059-.56-4.6-.78a.5.5,0,0,1-.13-.02c-1.421-.2-2.84-.37-4.271-.51l-.61-.06c-.259-.02-.509-.05-.759-.08-.95-.08-1.91-.12-2.86-.18-.36-.02-.71-.05-1.07-.07-1.51-.06-3.02-.1-4.55-.1h-.12c-1.51,0-3,.04-4.48.1-.37.02-.74.05-1.11.08-.941.05-1.88.09-2.81.17-.25.03-.5.06-.761.08-.219.02-.439.05-.659.07-1.4.14-2.8.3-4.18.5l-.2.03c-1.529.22-3.04.47-4.549.76l-.26.06q-4.56.885-8.95,2.18c-.15.05-.3.09-.451.14-1.389.41-2.77.85-4.129,1.33-.08.03-.161.05-.23.08q-2.01.7-3.99,1.5c-.34.14-.691.28-1.03.42-1.121.47-2.23.95-3.33,1.45l-1.23.57c-.95.45-1.88.92-2.82,1.4-.52.26-1.04.53-1.55.81-1.01.54-2.01,1.1-3,1.67-.58.34-1.16.7-1.731,1.05-.619.37-1.23.76-1.839,1.14q-2.97,1.905-5.84,4.03c-.27.21-.531.42-.8.63-1.06.81-2.109,1.63-3.149,2.48-.46.39-.92.79-1.371,1.19-.819.7-1.629,1.4-2.429,2.13-.571.52-1.13,1.06-1.69,1.6-.48.47-.98.91-1.45,1.39-.23.23-.45.46-.681.69-.29.3-.569.6-.859.9-.95.99-1.88,2-2.78,3.02-.13.15-.27.29-.4.44q-1.56,1.8-3.019,3.66l-.54.69q-1.425,1.83-2.76,3.71a1.142,1.142,0,0,1-.1.14q-1.423,2.04-2.739,4.13c-.04.08-.1.15-.14.23-.121.18-.22.36-.33.54-.42.68-.831,1.36-1.23,2.05-.17.28-.331.57-.49.86-.4.69-.79,1.39-1.17,2.09-.16.31-.33.62-.49.93-.35.68-.71,1.36-1.04,2.04-.19.37-.371.75-.54,1.12-.311.63-.6,1.25-.89,1.88-.211.46-.41.92-.61,1.38-.24.55-.48,1.11-.71,1.67s-.451,1.11-.67,1.66c-.181.48-.37.95-.55,1.42-.24.65-.47,1.3-.7,1.95-.14.39-.281.79-.41,1.18-.25.72-.48,1.45-.7,2.17-.111.34-.22.68-.321,1.02-.229.76-.439,1.53-.649,2.3-.09.32-.18.63-.26.95-.21.77-.39,1.54-.58,2.32-.051.21-.111.41-.151.62-.019.09-.039.17-.059.26-.361,1.61-.7,3.24-.98,4.88-.01.03-.01.06-.02.09-.27,1.55-.49,3.11-.691,4.67-.029.27-.069.53-.1.8-.18,1.58-.34,3.16-.45,4.76q-.015.285-.03.57c-.091,1.36-.14,2.73-.171,4.1-.009.43-.019.86-.019,1.29C5760.123,1125.531,5760.113,1125.851,5760.113,1126.161Zm10.28.01c0-1.45.04-2.96.109-4.47q.03-.39.061-.78c.01-.13.02-.25.03-.38.059-.96.13-2.07.24-3.18.04-.46.1-.93.16-1.39l.07-.55.05-.45c.079-.64.159-1.27.25-1.91q.135-.9.3-1.8l.08-.44.08-.45c.09-.53.179-1.05.28-1.58q.21-1.02.45-2.04l.06-.27.09-.4c.11-.51.23-1.02.35-1.53.17-.66.349-1.31.53-1.96l.069-.26.08-.3c.161-.57.321-1.14.491-1.71s.36-1.13.549-1.69l.1-.32.069-.22c.221-.66.441-1.31.671-1.96.159-.46.34-.93.52-1.39l.13-.34c.279-.74.6-1.57.95-2.4.14-.35.3-.7.45-1.05l.16-.36c.35-.79.75-1.71,1.19-2.63.12-.26.25-.51.38-.77l.17-.34c.41-.83.9-1.82,1.439-2.82.1-.18.211-.37.311-.56l.16-.29c.65-1.16,1.19-2.1,1.7-2.94l.269-.45.151-.22c.7-1.15,1.309-2.1,1.909-2.99.091-.13.181-.25.261-.38l.13-.18c.78-1.14,1.45-2.08,2.1-2.96.1-.12.19-.24.29-.36l.119-.17c.861-1.13,1.58-2.04,2.25-2.86.1-.12.211-.24.311-.36l.12-.14a89.176,89.176,0,0,1,11.26-11.24l.1-.09c.111-.1.231-.2.341-.29.86-.71,1.82-1.46,2.92-2.3l.12-.09c.11-.09.23-.18.34-.26.91-.68,1.9-1.39,3.029-2.16l.141-.1c.109-.08.23-.16.34-.23.92-.62,1.92-1.27,3.079-1.98l.171-.11c.13-.08.269-.17.4-.25.9-.54,1.86-1.09,3.03-1.74l.26-.14c.17-.1.34-.19.5-.28,1.07-.58,2.119-1.1,2.92-1.49l.32-.17c.23-.11.46-.23.689-.34.94-.44,1.871-.85,2.73-1.23l.361-.16c.32-.14.63-.28.95-.41.84-.35,1.669-.67,2.52-.99l.36-.14c.41-.16.829-.32,1.24-.47.77-.27,1.52-.52,2.25-.76l.069-.02.371-.12q.75-.255,1.5-.48c.629-.2,1.28-.37,1.92-.55l.25-.07.36-.1c.559-.16,1.119-.31,1.69-.45.59-.15,1.179-.28,1.77-.42l.36-.08.409-.09c.571-.13,1.131-.25,1.7-.37.649-.12,1.3-.24,1.95-.35l.34-.06.48-.08c.5-.09,1-.17,1.5-.25.9-.13,1.79-.24,2.64-.34l.08-.01.5-.06c.36-.04.71-.09,1.07-.12,1.21-.12,2.45-.22,3.819-.29l.111-.01.409-.03c1.511-.08,3.04-.11,4.52-.11s3.011.03,4.52.11l.46.03.161.01c1.37.08,2.58.17,3.71.29.39.04.779.08,1.16.13l.52.07.219.02c.77.09,1.571.19,2.391.31q.81.12,1.62.27l.46.08.4.07c.589.1,1.19.2,1.78.32.619.12,1.24.26,1.869.4l.341.08.349.08c.56.13,1.121.25,1.681.39.629.16,1.25.33,1.879.51l.281.07.3.09c.59.16,1.169.32,1.76.5.55.17,1.11.35,1.659.53l.321.11.159.05c.681.22,1.371.45,2.041.69.45.16.89.33,1.339.5l.381.15c.739.28,1.57.6,2.4.95.359.15.71.3,1.069.46l.361.16c.789.34,1.7.74,2.61,1.18.27.13.54.26.819.4l.331.17c.819.4,1.79.89,2.77,1.41.2.12.41.23.609.35l.311.17c1.15.64,2.04,1.15,2.87,1.65.17.1.33.2.5.31l.25.16c1.14.7,2.06,1.29,2.9,1.86.16.1.31.21.47.32l.23.17c1.14.78,2,1.39,2.81,1.99.17.13.34.27.51.4l.25.19c.78.59,1.7,1.31,2.629,2.07.2.17.4.34.6.52.109.08.209.17.31.26.79.66,1.58,1.33,2.359,2.04.281.25.551.51.811.77.14.13.27.26.4.38a88.821,88.821,0,0,1,4.979,124.29c-1.069,1.18-2.069,2.23-3.069,3.23-1.07,1.07-2.17,2.12-3.29,3.12-.09.08-.181.17-.27.25l-.061.05c-1.029.92-2,1.75-2.969,2.54-.261.22-.54.43-.81.64l-.39.31c-.71.56-1.44,1.14-2.21,1.71-.391.29-.79.57-1.19.85l-.411.29-.27.19c-.549.39-1.109.78-1.669,1.16-.47.31-.96.62-1.44.92l-.34.22-.25.16c-.551.35-1.09.69-1.651,1.03-.479.29-.979.57-1.469.85l-.33.18-.2.12c-.6.34-1.2.68-1.809,1-.45.24-.9.47-1.361.7l-.349.18-.08.04c-.69.35-1.41.71-2.16,1.06-.38.18-.76.36-1.15.53l-.37.16c-.8.36-1.641.74-2.52,1.1-.311.13-.621.25-.93.37l-.36.14c-.89.35-1.84.72-2.84,1.07-.23.08-.471.16-.71.24l-.33.11c-1.241.42-2.21.74-3.141,1.01-.179.06-.359.11-.54.16l-.259.07c-1.3.38-2.39.67-3.41.92-.141.04-.291.07-.44.1l-.2.05c-1.329.31-2.5.57-3.589.78-.14.03-.26.05-.39.07l-.16.03c-1.34.26-2.551.46-3.7.63-.13.02-.25.03-.38.05l-.14.01c-1.38.2-2.61.34-3.75.45l-.391.03-.109.01c-2.67.24-5.391.37-8.07.37a88.87,88.87,0,0,1-88.761-84.49C5770.433,1128.961,5770.393,1127.531,5770.393,1126.171Z" transform="translate(-4441 -308)"/>
    <path id="Path_2381" data-name="Path 2381" class="cls-2" d="M5799.96,1185.475a83.694,83.694,0,0,0,66.917,24.218c.16-.015.321-.022.48-.037,1.18-.114,2.357-.26,3.533-.424.165-.023.333-.039.5-.063,1.168-.17,2.333-.371,3.495-.59.17-.032.342-.058.511-.091,1.136-.222,2.266-.474,3.394-.743.2-.047.4-.089.6-.138,1.077-.264,2.148-.559,3.216-.867.252-.073.506-.14.758-.216.994-.3,1.982-.622,2.967-.957.326-.111.655-.216.979-.331.9-.318,1.79-.662,2.679-1.011.405-.16.813-.314,1.215-.479.8-.329,1.588-.68,2.378-1.033.481-.216.965-.428,1.441-.652.707-.333,1.4-.687,2.1-1.04.539-.273,1.081-.542,1.614-.827.637-.34,1.265-.7,1.9-1.057.57-.324,1.142-.643,1.7-.979.6-.361,1.193-.741,1.787-1.117.562-.357,1.129-.709,1.683-1.08.616-.411,1.222-.845,1.83-1.275.505-.357,1.015-.707,1.511-1.075.705-.522,1.4-1.069,2.088-1.617.377-.3.763-.587,1.135-.892q1.419-1.163,2.795-2.4c.106-.094.215-.182.32-.277q1.58-1.428,3.1-2.95c1-1,1.962-2.016,2.9-3.048a83.834,83.834,0,0,0-4.708-117.3c-.381-.359-.754-.733-1.141-1.084-.728-.661-1.479-1.3-2.23-1.932-.288-.244-.568-.5-.858-.737-.813-.669-1.646-1.313-2.484-1.951-.238-.183-.473-.374-.713-.553-.869-.647-1.757-1.271-2.652-1.885-.221-.153-.439-.312-.662-.462-.9-.6-1.81-1.182-2.73-1.75-.239-.148-.475-.3-.714-.447-.891-.538-1.8-1.053-2.711-1.558-.29-.161-.576-.327-.867-.484-.86-.463-1.734-.9-2.612-1.337-.363-.179-.724-.365-1.089-.538-.809-.386-1.63-.75-2.454-1.11-.45-.2-.9-.4-1.351-.587-.748-.311-1.506-.6-2.265-.893-.541-.206-1.081-.418-1.625-.613-.687-.247-1.383-.474-2.078-.7-.621-.2-1.242-.413-1.867-.6-.643-.195-1.294-.371-1.944-.551-.678-.188-1.355-.38-2.037-.55-.633-.158-1.273-.3-1.912-.441-.7-.157-1.39-.318-2.088-.457-.68-.135-1.368-.248-2.054-.367-.655-.113-1.308-.234-1.965-.331-.817-.122-1.642-.217-2.467-.314-.527-.063-1.053-.137-1.581-.189-1.158-.115-2.326-.2-3.5-.266-.2-.012-.394-.033-.591-.043q-2.12-.105-4.266-.108t-4.274.109c-.164.008-.327.025-.491.035-1.207.067-2.409.155-3.6.273-.5.05-.99.12-1.485.179-.859.1-1.718.2-2.568.326-.624.093-1.246.208-1.868.316-.72.123-1.442.242-2.156.384-.665.133-1.326.287-1.989.435s-1.349.3-2.016.466c-.647.162-1.29.344-1.934.521-.685.19-1.372.376-2.051.583-.589.178-1.173.375-1.758.567-.733.241-1.467.481-2.19.741-.506.181-1.008.378-1.512.57-.8.3-1.595.611-2.382.939-.411.171-.818.355-1.227.533-.866.378-1.73.761-2.58,1.167-.32.152-.636.315-.954.471-.925.456-1.844.919-2.749,1.408-.239.129-.476.267-.715.4-.964.532-1.921,1.076-2.862,1.646-.182.11-.361.227-.543.339-.98.6-1.95,1.219-2.9,1.86-.152.1-.3.211-.451.315-.968.661-1.925,1.335-2.863,2.035-.146.109-.287.225-.432.335-.935.707-1.86,1.426-2.764,2.172-.139.115-.275.239-.414.355a84.452,84.452,0,0,0-10.625,10.618c-.133.159-.273.313-.4.472-.728.883-1.43,1.788-2.122,2.7-.127.167-.261.331-.387.5-.682.915-1.34,1.85-1.985,2.792-.122.177-.249.351-.368.528-.622.924-1.22,1.867-1.806,2.817-.131.212-.268.421-.4.634-.551.912-1.077,1.84-1.6,2.775-.148.269-.3.535-.449.805-.472.875-.92,1.766-1.362,2.66-.172.348-.35.694-.517,1.044-.389.818-.756,1.648-1.12,2.48-.194.445-.394.888-.58,1.335-.312.748-.6,1.505-.892,2.263-.208.544-.421,1.086-.617,1.633-.244.68-.468,1.368-.695,2.056-.208.631-.42,1.261-.612,1.9s-.361,1.26-.537,1.892c-.194.7-.391,1.4-.566,2.1-.151.6-.282,1.212-.42,1.82-.165.728-.333,1.456-.478,2.188-.126.631-.23,1.269-.341,1.905-.123.706-.252,1.411-.357,2.119-.109.736-.193,1.48-.283,2.221-.074.612-.159,1.223-.219,1.836-.1.994-.166,2-.229,3-.023.365-.06.728-.078,1.093-.069,1.4-.107,2.807-.107,4.223,0,1.39.039,2.767.1,4.14A83.572,83.572,0,0,0,5799.96,1185.475Z" transform="translate(-4441 -308)"/>
    <g id="Group_634" data-name="Group 634" transform="translate(-4441 -308)">
      <g id="Group_632" data-name="Group 632">
        <path id="Path_2382" data-name="Path 2382" class="cls-3" d="M5859.277,1077.716h0a6.415,6.415,0,0,1-6.4-6.4V1055.74a6.415,6.415,0,0,1,6.4-6.4h0a6.417,6.417,0,0,1,6.4,6.4v15.578a6.417,6.417,0,0,1-6.4,6.4Z"/>
        <path id="Path_2383" data-name="Path 2383" class="cls-3" d="M5907.722,1126.161h0a6.417,6.417,0,0,1,6.4-6.4H5929.7a6.419,6.419,0,0,1,6.4,6.4h0a6.418,6.418,0,0,1-6.4,6.4H5914.12a6.415,6.415,0,0,1-6.4-6.4Z"/>
        <path id="Path_2384" data-name="Path 2384" class="cls-3" d="M5859.277,1174.606h0a6.419,6.419,0,0,1,6.4,6.4v15.578a6.417,6.417,0,0,1-6.4,6.4h0a6.415,6.415,0,0,1-6.4-6.4V1181a6.417,6.417,0,0,1,6.4-6.4Z"/>
        <path id="Path_2385" data-name="Path 2385" class="cls-3" d="M5810.831,1126.161h0a6.415,6.415,0,0,1-6.4,6.4h-15.577a6.415,6.415,0,0,1-6.4-6.4h0a6.417,6.417,0,0,1,6.4-6.4h15.577a6.417,6.417,0,0,1,6.4,6.4Z"/>
      </g>
      <g id="Group_633" data-name="Group 633">
        <path id="Path_2386" data-name="Path 2386" class="cls-3" d="M5867.991,1132.541l-2.355,1.843-2.355,1.842a2.186,2.186,0,0,1-3.062-.374l-12.8-16.357-12.8-16.358a2.188,2.188,0,0,1,.374-3.061l2.356-1.843,2.355-1.843a2.188,2.188,0,0,1,3.061.374l12.8,16.358,12.8,16.357a2.187,2.187,0,0,1-.374,3.062Z"/>
        <path id="Path_2387" data-name="Path 2387" class="cls-3" d="M5852.162,1134.746l-1.843-2.355-1.842-2.355a2.187,2.187,0,0,1,.374-3.062l12.321-9.639,12.322-9.64a2.188,2.188,0,0,1,3.061.374l1.843,2.356,1.842,2.355a2.187,2.187,0,0,1-.373,3.061l-12.322,9.64-12.322,9.639a2.185,2.185,0,0,1-3.061-.374Z"/>
      </g>
    </g>
    <g id="Group_635" data-name="Group 635" transform="translate(-4441 -308)">
      <path id="Path_2388" data-name="Path 2388" class="cls-1" d="M5718.851,1119.85l-21.72,17.81a3.7,3.7,0,0,1-4.69-5.72l18.131-14.86A73.106,73.106,0,0,0,5718.851,1119.85Z"/>
      <path id="Path_2389" data-name="Path 2389" class="cls-1" d="M5702.981,1113.53l-27.85,22.84a3.7,3.7,0,0,1-4.69-5.72l25.85-21.19A73.1,73.1,0,0,0,5702.981,1113.53Z"/>
      <path id="Path_2390" data-name="Path 2390" class="cls-1" d="M5690.112,1104.76l-34.45,28.24a3.7,3.7,0,0,1-4.691-5.72l33.681-27.62C5686.381,1101.45,5688.211,1103.15,5690.112,1104.76Z"/>
      <path id="Path_2391" data-name="Path 2391" class="cls-1" d="M5671.561,1081.32l-34.85,28.57a3.719,3.719,0,0,1-5.21-.52,3.708,3.708,0,0,1,.52-5.2l36.43-29.87A71.289,71.289,0,0,0,5671.561,1081.32Z"/>
      <path id="Path_2392" data-name="Path 2392" class="cls-1" d="M5679.682,1093.99l-42.92,35.19a3.718,3.718,0,0,1-5.21-.52,3.666,3.666,0,0,1-.831-2.34,3.709,3.709,0,0,1,1.351-2.87l43.29-35.5A71.521,71.521,0,0,0,5679.682,1093.99Z"/>
      <path id="Path_2393" data-name="Path 2393" class="cls-1" d="M5665.961,1066.58l-28.74,23.56a3.7,3.7,0,0,1-6.039-2.86,3.669,3.669,0,0,1,1.35-2.86l31.77-26.05A74.251,74.251,0,0,0,5665.961,1066.58Z"/>
      <path id="Path_2394" data-name="Path 2394" class="cls-1" d="M5663.521,1047.59c0,.55.011,1.09.02,1.64l-23.27,19.08a3.7,3.7,0,0,1-4.69-5.72l28.4-23.29A73.232,73.232,0,0,0,5663.521,1047.59Z"/>
    </g>
    <path id="Path_2395" data-name="Path 2395" class="cls-2" d="M5671.522,1047.591a66.9,66.9,0,0,0,79.361,65.67c.01-.14.04-.3.059-.47l.021-.19c.01-.05.01-.12.019-.17.261-1.99.5-3.61.761-5.12a2.269,2.269,0,0,1,.049-.27c.271-1.55.6-3.19,1.041-5.16l.04-.18c.08-.36.149-.64.2-.82l.01-.06.109-.45c.171-.69.33-1.37.521-2.05.079-.32.17-.63.26-.95l.029-.13c.221-.8.451-1.62.711-2.49.11-.39.24-.77.36-1.16.2-.66.46-1.5.77-2.39.15-.44.309-.9.47-1.34.229-.65.47-1.34.729-2.04.011-.03.031-.07.041-.1.09-.23.169-.45.26-.68s.179-.45.27-.68c.02-.07.05-.13.07-.2l.13-.33c.2-.48.39-.97.589-1.45.25-.61.521-1.23.781-1.84l.03-.05c.21-.5.43-.99.66-1.49.31-.69.62-1.35.95-2.02.219-.48.42-.89.619-1.28.271-.56.56-1.12.85-1.68l.25-.48c.1-.2.21-.39.311-.59l.189-.35c.031-.06.061-.12.091-.18.44-.81.849-1.55,1.25-2.24.2-.35.389-.69.59-1.03.41-.69.84-1.42,1.33-2.21l.02-.03c.09-.16.19-.32.29-.48.039-.08.09-.15.13-.22.029-.04.06-.09.09-.14,1.02-1.61,2-3.09,2.99-4.51.04-.05.079-.11.119-.16.011-.02.021-.03.031-.05,1-1.4,2.02-2.77,3.02-4.05l.549-.7c1.041-1.34,2.171-2.7,3.341-4.06.15-.17.3-.33.44-.48l.02-.03c.99-1.11,2.02-2.23,3.059-3.32l.4-.42c.16-.17.32-.34.489-.51a1.831,1.831,0,0,1,.131-.13l.26-.27c.12-.12.25-.25.37-.38.41-.41.8-.78,1.11-1.07.15-.14.31-.28.45-.42.02-.02.039-.04.06-.06.61-.59,1.229-1.18,1.89-1.79.91-.82,1.79-1.58,2.6-2.28.489-.43.98-.86,1.47-1.28.05-.04.09-.07.139-.11,1.011-.83,2.081-1.67,3.361-2.65l.309-.24c.161-.13.31-.25.471-.37.06-.05.12-.09.17-.14,2.04-1.51,4.189-2.99,6.41-4.42a.672.672,0,0,0,.11-.07l.47-.29c.49-.31.98-.62,1.48-.91l.219-.14c.221-.14.451-.28.681-.42a66.848,66.848,0,0,0-131.931,15.25Z" transform="translate(-4441 -308)"/>
    <path id="Path_2396" data-name="Path 2396" class="cls-3" d="M5759.064,1059.259a15.267,15.267,0,0,0-3.117-9.948,18.053,18.053,0,0,0-7.116-5.325,74.715,74.715,0,0,0-10.058-3.12c-4.676-1.162-6.666-2.14-7.511-2.755a3.177,3.177,0,0,1-1.237-2.918,4.488,4.488,0,0,1,1.843-3.812c1.412-1.093,3.554-1.648,6.365-1.648,5.723,0,8.489,2.054,8.97,7.044a2.289,2.289,0,0,0,2.42,2.026h5.914a2.3,2.3,0,0,0,1.752-.573,2.242,2.242,0,0,0,.678-1.693c-.214-5.636-2.195-10.053-5.887-13.213a18.964,18.964,0,0,0-8.722-4.1v-6.005a1.152,1.152,0,0,0-1.152-1.152h-5.9a1.152,1.152,0,0,0-1.152,1.152v5.644a18.39,18.39,0,0,0-10.645,4.507,15.716,15.716,0,0,0-5.26,12.141,14.375,14.375,0,0,0,4.156,10.691c2.628,2.579,6.694,4.505,12.43,5.884,4.978,1.2,8.479,2.395,10.4,3.558.953.576,2.048,1.568,2.048,4.147a5.242,5.242,0,0,1-2.155,4.506,10.926,10.926,0,0,1-6.741,1.875,12.668,12.668,0,0,1-7.75-2.31c-1.953-1.427-3.027-3.555-3.282-6.713a2.346,2.346,0,0,0-2.424-2.134h-5.851a2.343,2.343,0,0,0-1.747.639,2.313,2.313,0,0,0-.683,1.719,20.59,20.59,0,0,0,5.744,14.228c2.847,2.915,6.8,4.69,11.755,5.343v5.028a1.152,1.152,0,0,0,1.152,1.152h5.9a1.152,1.152,0,0,0,1.152-1.152v-5.012a18.6,18.6,0,0,0,10.229-4.81A17.012,17.012,0,0,0,5759.064,1059.259Z" transform="translate(-4441 -308)"/>
  </g>
</svg>
