<svg width="49" height="38" viewBox="0 0 49 38" fill="none" xmlns="http://www.w3.org/2000/svg">
<g clip-path="url(#clip0_110_60)">
<path d="M43.3781 6.03027C43.1074 5.56559 42.7364 5.16573 42.2917 4.85918C41.8469 4.55263 41.3393 4.34693 40.8049 4.25675C40.7193 3.72265 40.5148 3.21403 40.2063 2.76764C39.8977 2.32126 39.4929 1.94823 39.021 1.67551C38.549 1.40279 38.0218 1.23719 37.4773 1.19066C36.9328 1.14412 36.3847 1.21782 35.8725 1.40643C35.5313 0.973426 35.0959 0.622123 34.5986 0.378657C34.1013 0.135192 33.5549 0.00583547 33.0001 0.000207153C32.4453 -0.00542116 31.8963 0.112827 31.3941 0.346153C30.8919 0.579479 30.4492 0.921873 30.0992 1.34786C29.5868 1.15442 29.0372 1.07643 28.4904 1.11958C27.9437 1.16272 27.4135 1.32592 26.9385 1.59729C26.4635 1.86867 26.0556 2.2414 25.7445 2.68837C25.4334 3.13534 25.2268 3.64531 25.1399 4.18119C24.5975 4.26721 24.0813 4.47199 23.6291 4.78058C23.1768 5.08917 22.7999 5.49379 22.5259 5.9649C22.2518 6.43602 22.0875 6.96174 22.045 7.5037C22.0024 8.04566 22.0827 8.59019 22.2799 9.09753C21.8406 9.43737 21.4849 9.87133 21.2395 10.3668C20.994 10.8623 20.8653 11.4064 20.863 11.9581C20.8607 12.5099 20.9848 13.055 21.226 13.5525C21.4673 14.05 21.8193 14.4869 22.2558 14.8303C22.0599 15.3403 21.982 15.8872 22.0278 16.4309C22.0737 16.9745 22.2421 17.5011 22.5206 17.9719C22.7991 18.4427 23.1808 18.8457 23.6374 19.1514C24.0941 19.457 24.6141 19.6575 25.1594 19.7381C25.2474 20.2762 25.456 20.7879 25.7699 21.2357C26.0838 21.6836 26.495 22.0562 26.9735 22.3263C27.4519 22.5964 27.9854 22.757 28.5348 22.7964C29.0841 22.8358 29.6354 22.753 30.1482 22.5541C30.4987 22.9634 30.936 23.2912 31.429 23.5142C31.9221 23.7373 32.4587 23.8501 33.0008 23.8447C33.5429 23.8392 34.0771 23.7156 34.5655 23.4827C35.0538 23.2498 35.4843 22.9133 35.8263 22.497C36.3388 22.6904 36.8884 22.7683 37.4351 22.7251C37.9819 22.6819 38.512 22.5186 38.987 22.2472C39.462 21.9758 39.8699 21.6031 40.181 21.1562C40.4922 20.7092 40.6988 20.1992 40.7858 19.6634C41.3268 19.5774 41.8416 19.3733 42.293 19.066C42.7443 18.7586 43.1209 18.3556 43.3953 17.8863C43.6697 17.417 43.835 16.8932 43.8794 16.3528C43.9237 15.8124 43.8459 15.269 43.6516 14.762C44.0635 14.4176 44.3941 13.988 44.6201 13.5035C44.8461 13.0189 44.9621 12.4913 44.9598 11.9576C44.9576 11.424 44.8371 10.8973 44.607 10.4147C44.3769 9.93208 44.0427 9.50522 43.6279 9.16418C43.8251 8.65645 43.9051 8.11149 43.8619 7.56922C43.8187 7.02695 43.6534 6.50112 43.3781 6.03027ZM32.9115 21.4392C31.0092 21.4392 29.1495 20.8811 27.5678 19.8353C25.986 18.7895 24.7532 17.303 24.0252 15.5639C23.2971 13.8248 23.1066 11.9111 23.4777 10.0648C23.8488 8.21853 24.7649 6.52262 26.11 5.19152C27.4551 3.86042 29.1689 2.95391 31.0347 2.58664C32.9005 2.21936 34.8344 2.40781 36.592 3.12815C38.3495 3.84849 39.8517 5.06838 40.9086 6.63355C41.9655 8.19871 42.5297 10.0389 42.5297 11.9213C42.5298 13.1712 42.2811 14.4089 41.7979 15.5638C41.3146 16.7186 40.6062 17.7679 39.7131 18.6518C38.82 19.5357 37.7596 20.2369 36.5927 20.7153C35.4257 21.1937 34.175 21.4399 32.9118 21.44L32.9115 21.4392Z" fill="#2269D1"/>
<path d="M32.9116 3.46883L30.3505 8.60409L24.6234 9.42765L28.7676 13.4247L27.7896 19.0693L32.9121 16.4046L38.0347 19.0693L37.0564 13.4249L41.2004 9.42782L35.4733 8.60425L32.9116 3.46883Z" fill="#062B4C"/>
<path d="M44.8119 24.0554C44.2974 24.2252 44.2974 24.222 44.2974 24.222L33.8344 29.1994C33.8344 29.1994 36.3501 32.593 31.9476 34.2337C28.9745 34.9694 22.7426 32.14 22.7426 32.14L23.7144 31.2913C23.7144 31.2913 29.7664 33.9183 32.1192 32.9319C34.472 31.9455 33.2056 29.99 32.7482 29.8766C32.2909 29.7633 26.6629 25.9515 19.2871 23.36C15.6859 22.1827 9.50266 25.5212 9.50266 25.5212V35.1358H15.1187C15.1187 35.1358 25.2584 38.7605 29.6607 37.8555C34.063 36.9504 44.7944 30.3521 48.5857 26.3984C50.4727 22.1545 45.3271 23.8858 44.8119 24.0554Z" fill="#062B4C"/>
<path d="M7.45249 23.7517H0.883626C0.395797 23.7517 0 24.0684 0 24.4591V36.2425C0 36.6332 0.39563 36.9499 0.883626 36.9499H7.45249C7.94048 36.9499 8.33611 36.6332 8.33611 36.2425V24.4591C8.33611 24.0684 7.94048 23.7517 7.45249 23.7517ZM3.74825 35.0167C2.85929 35.0167 2.13921 34.2515 2.13937 33.3074C2.13954 32.3632 2.85929 31.5982 3.74825 31.5982C4.63721 31.5982 5.35695 32.3634 5.35695 33.3074C5.35695 34.2514 4.63654 35.0167 3.74825 35.0167Z" fill="#062B4C"/>
</g>
<defs>
<clipPath id="clip0_110_60">
<rect width="49" height="38" fill="white"/>
</clipPath>
</defs>
</svg>
