<svg xmlns="http://www.w3.org/2000/svg" viewBox="0 0 254.364 237.254">
  <defs>
    <style>
      .cls-1 {
        fill: #2269d1;
      }

      .cls-2 {
        fill: #062b4c;
      }

      .cls-3 {
        fill: #fff;
      }
    </style>
  </defs>
  <g id="wallet" transform="translate(-1227.022 -676.778)">
    <path id="Path_2278" data-name="Path 2278" class="cls-1" d="M4222.714,1007.422H4241.3v33.542h-18.586a16.771,16.771,0,0,1,0-33.542Z" transform="translate(-2942 -314)"/>
    <path id="Path_2279" data-name="Path 2279" class="cls-1" d="M4389.319,1023.375v17.589h-21.378v-33.542h5.424A16,16,0,0,1,4389.319,1023.375Z" transform="translate(-2942 -314)"/>
    <g id="Group_598" data-name="Group 598" transform="translate(-2942 -314)">
      <path id="Path_2280" data-name="Path 2280" class="cls-2" d="M4325.968,1118.555v28.854a21.96,21.96,0,0,0,21.935,21.934H4410v16.691a20.667,20.667,0,0,1-20.609,20.608h-134.22a45.375,45.375,0,0,0,8.933-27.647c0-10.738-2.911-19.742-8.664-26.761a48.119,48.119,0,0,0-5.344-5.583,13.583,13.583,0,0,0,7.568-3.958,14.625,14.625,0,0,0,4.177-10.768c-.548-14.427-5.783-25.983-15.583-34.358a46.7,46.7,0,0,0-14.437-8.385v-4.825a12.349,12.349,0,0,0-12.334-12.334h-12.123a13.267,13.267,0,0,0-1.416.08v-47.738c.03,1.386.389,7.159,4.6,11.327a16.751,16.751,0,0,0,12.942,5.264h165.905A20.667,20.667,0,0,1,4410,1061.565v35.055h-62.1A21.955,21.955,0,0,0,4325.968,1118.555Z"/>
      <path id="Path_2281" data-name="Path 2281" class="cls-2" d="M4205.95,1024.361v-.322S4205.947,1024.157,4205.95,1024.361Z"/>
    </g>
    <path id="Path_2282" data-name="Path 2282" class="cls-2" d="M4359.965,1006.731v26.3H4249.276v-26.3a16,16,0,0,1,15.953-15.953h78.783A16,16,0,0,1,4359.965,1006.731Z" transform="translate(-2942 -314)"/>
    <rect id="Rectangle_49" data-name="Rectangle 49" class="cls-1" width="87.447" height="52.783" rx="12" transform="translate(1393.939 792.586)"/>
    <path id="Path_2283" data-name="Path 2283" class="cls-1" d="M4254.132,1178.995c0-8.374-2.155-15.257-6.4-20.446a37.088,37.088,0,0,0-14.627-10.943,153.1,153.1,0,0,0-20.671-6.412c-9.61-2.39-13.7-4.4-15.436-5.664-1.185-.862-2.543-2.32-2.543-6a9.226,9.226,0,0,1,3.788-7.834c2.9-2.247,7.3-3.387,13.082-3.387,11.761,0,17.446,4.221,18.436,14.477a4.7,4.7,0,0,0,4.973,4.164h12.155a4.714,4.714,0,0,0,3.6-1.179,4.6,4.6,0,0,0,1.393-3.478c-.438-11.583-4.509-20.661-12.1-27.156a38.957,38.957,0,0,0-17.925-8.437v-12.342a2.368,2.368,0,0,0-2.368-2.367h-12.127a2.367,2.367,0,0,0-2.368,2.367v11.6c-8.739.942-16.1,4.03-21.879,9.263-7.173,6.488-10.809,14.89-10.809,24.952,0,9.017,2.874,16.413,8.54,21.972,5.4,5.3,13.758,9.259,25.547,12.094,10.231,2.461,17.426,4.922,21.385,7.312,1.959,1.183,4.21,3.223,4.21,8.523a10.776,10.776,0,0,1-4.43,9.261c-3.356,2.557-8.017,3.853-13.855,3.853-6.346,0-11.556-1.553-15.927-4.747-4.015-2.933-6.221-7.306-6.747-13.8a4.82,4.82,0,0,0-4.979-4.386h-12.028a4.814,4.814,0,0,0-3.589,1.313,4.757,4.757,0,0,0-1.4,3.533c.383,11.81,4.355,21.613,11.806,29.242,5.851,5.992,13.971,9.64,24.159,10.981v10.334a2.367,2.367,0,0,0,2.368,2.367h12.127a2.368,2.368,0,0,0,2.368-2.367v-10.3a38.233,38.233,0,0,0,21.024-9.885A34.97,34.97,0,0,0,4254.132,1178.995Z" transform="translate(-2942 -314)"/>
    <circle id="Ellipse_40" data-name="Ellipse 40" class="cls-3" cx="9.454" cy="9.454" r="9.454" transform="translate(1399.15 809.721)"/>
  </g>
</svg>
