<svg width="30" height="22" viewBox="0 0 15 17" fill="none" xmlns="http://www.w3.org/2000/svg">
<g clip-path="url(#clip0_102_21)">
<path d="M5.03692 11.1138L5.8927 12.8657C5.90202 12.8847 5.91578 12.9012 5.93278 12.9136C5.94978 12.9261 5.96952 12.9342 5.9903 12.9373L7.90394 13.2182C7.92782 13.2218 7.95025 13.2321 7.96869 13.2478C7.98712 13.2636 8.00085 13.2842 8.00831 13.3074C8.01578 13.3306 8.01668 13.3555 8.01094 13.3792C8.00519 13.4029 7.99301 13.4245 7.97578 13.4416L6.59107 14.8052C6.57603 14.8201 6.56477 14.8384 6.55828 14.8586C6.55178 14.8787 6.55022 14.9002 6.55375 14.9211L6.88066 16.8466C6.88466 16.8707 6.88194 16.8954 6.8728 16.918C6.86366 16.9405 6.84848 16.9601 6.82894 16.9745C6.80939 16.9888 6.78628 16.9973 6.76219 16.9991C6.73811 17.0009 6.71398 16.9959 6.69257 16.9846L4.98101 16.0756C4.9624 16.0657 4.94169 16.0605 4.92066 16.0605C4.89963 16.0605 4.87892 16.0657 4.86032 16.0756L3.14876 16.9846C3.12734 16.9959 3.10324 17.0009 3.07916 16.9991C3.05508 16.9973 3.03198 16.9887 3.01245 16.9744C2.99292 16.9601 2.97773 16.9405 2.96859 16.9179C2.95945 16.8954 2.95673 16.8707 2.96072 16.8466L3.28757 14.9211C3.29114 14.9002 3.28962 14.8787 3.28314 14.8585C3.27665 14.8383 3.26539 14.8201 3.25034 14.8052L1.86555 13.4416C1.84831 13.4245 1.83614 13.4029 1.83039 13.3792C1.82464 13.3555 1.82555 13.3306 1.83301 13.3074C1.84048 13.2842 1.8542 13.2636 1.87264 13.2478C1.89107 13.2321 1.91351 13.2218 1.93739 13.2182L3.85108 12.9373C3.87186 12.9342 3.89158 12.9261 3.90857 12.9136C3.92557 12.9012 3.93931 12.8847 3.94863 12.8657L4.80441 11.1138C4.81517 11.092 4.83177 11.0736 4.85231 11.0608C4.87284 11.0479 4.89651 11.0411 4.92066 11.0411C4.94482 11.0411 4.96849 11.0479 4.98902 11.0608C5.00955 11.0736 5.02615 11.092 5.03692 11.1138Z" fill="#1E1B4B" fill-opacity="0.6"/>
<path d="M10.4509 9.61427L11.1895 11.1261C11.1975 11.1425 11.2094 11.1567 11.224 11.1675C11.2387 11.1783 11.2558 11.1853 11.2737 11.1879L12.9252 11.4304C12.9458 11.4335 12.9651 11.4424 12.981 11.456C12.9969 11.4696 13.0087 11.4874 13.0151 11.5074C13.0216 11.5274 13.0224 11.5488 13.0174 11.5693C13.0125 11.5897 13.002 11.6084 12.9871 11.6231L11.7922 12.7996C11.7792 12.8124 11.7695 12.8282 11.7639 12.8457C11.7583 12.8631 11.7569 12.8816 11.7599 12.8997L12.0421 14.5613C12.0455 14.5821 12.0432 14.6034 12.0353 14.6229C12.0274 14.6424 12.0143 14.6593 11.9974 14.6717C11.9806 14.684 11.9606 14.6914 11.9399 14.693C11.9191 14.6946 11.8983 14.6903 11.8798 14.6806L10.4027 13.896C10.3866 13.8875 10.3688 13.8831 10.3506 13.8831C10.3325 13.8831 10.3146 13.8875 10.2986 13.896L8.82143 14.6806C8.80294 14.6903 8.78213 14.6946 8.76135 14.693C8.74056 14.6914 8.72062 14.684 8.70377 14.6717C8.68691 14.6593 8.67382 14.6424 8.66593 14.6229C8.65805 14.6034 8.65568 14.5821 8.65913 14.5613L8.94126 12.8997C8.9443 12.8816 8.94297 12.8631 8.93737 12.8457C8.93177 12.8283 8.92207 12.8125 8.9091 12.7996L7.71407 11.6229C7.69922 11.6081 7.68872 11.5895 7.68378 11.569C7.67884 11.5486 7.67965 11.5272 7.68609 11.5071C7.69253 11.4871 7.70437 11.4693 7.72027 11.4557C7.73616 11.4421 7.75548 11.4333 7.77609 11.4301L9.4275 11.1877C9.44545 11.185 9.46249 11.178 9.47716 11.1673C9.49183 11.1565 9.5037 11.1423 9.51174 11.1259L10.2503 9.61403C10.2597 9.59523 10.274 9.57941 10.2917 9.56837C10.3094 9.55733 10.3299 9.55149 10.3507 9.55151C10.3715 9.55154 10.3919 9.55743 10.4096 9.56852C10.4273 9.5796 10.4416 9.59544 10.4509 9.61427Z" fill="#1E1B4B" fill-opacity="0.6"/>
<path d="M12.999 6.46341L13.574 7.64045C13.5803 7.65326 13.5895 7.66433 13.6009 7.67273C13.6123 7.68112 13.6256 7.68658 13.6396 7.68864L14.9254 7.87735C14.9415 7.87972 14.9566 7.88659 14.969 7.89718C14.9814 7.90777 14.9907 7.92165 14.9957 7.93727C15.0007 7.95289 15.0013 7.96962 14.9974 7.98556C14.9935 8.00151 14.9853 8.01602 14.9736 8.02747L14.0432 8.94368C14.0331 8.95363 14.0256 8.96592 14.0212 8.97948C14.0168 8.99305 14.0158 9.00748 14.0182 9.02154L14.2378 10.3154C14.2406 10.3316 14.2388 10.3482 14.2326 10.3634C14.2265 10.3786 14.2163 10.3918 14.2032 10.4014C14.19 10.4111 14.1745 10.4168 14.1583 10.418C14.1421 10.4192 14.1258 10.4158 14.1115 10.4082L12.9614 9.79731C12.9489 9.79067 12.935 9.78719 12.9209 9.78719C12.9068 9.78719 12.8929 9.79067 12.8804 9.79731L11.7303 10.4082C11.7159 10.4158 11.6997 10.4192 11.6835 10.418C11.6673 10.4168 11.6518 10.4111 11.6386 10.4014C11.6255 10.3918 11.6153 10.3786 11.6091 10.3634C11.603 10.3482 11.6012 10.3316 11.6039 10.3154L11.8236 9.02154C11.8259 9.00748 11.8249 8.99306 11.8205 8.9795C11.8162 8.96594 11.8086 8.95364 11.7986 8.94368L10.8681 8.02747C10.8565 8.01601 10.8482 8.0015 10.8443 7.98555C10.8404 7.9696 10.841 7.95287 10.846 7.93725C10.8511 7.92163 10.8603 7.90773 10.8727 7.89715C10.8852 7.88656 10.9003 7.87971 10.9164 7.87735L12.2022 7.68864C12.2162 7.68657 12.2294 7.6811 12.2409 7.67271C12.2523 7.66432 12.2615 7.65325 12.2677 7.64045L12.8428 6.46341C12.85 6.44869 12.8611 6.4363 12.8749 6.42763C12.8887 6.41896 12.9046 6.41437 12.9209 6.41437C12.9372 6.41437 12.9531 6.41896 12.9669 6.42763C12.9807 6.4363 12.9918 6.44869 12.999 6.46341Z" fill="#1E1B4B" fill-opacity="0.6"/>
<path d="M13.0372 3.29348L13.4472 4.13276C13.4517 4.14189 13.4582 4.14978 13.4664 4.15576C13.4746 4.16174 13.484 4.16563 13.494 4.1671L14.4108 4.30168C14.4223 4.30335 14.4331 4.30824 14.4419 4.31578C14.4508 4.32333 14.4574 4.33323 14.461 4.34437C14.4645 4.35551 14.465 4.36744 14.4622 4.37881C14.4594 4.39018 14.4535 4.40053 14.4452 4.4087L13.7818 5.062C13.7746 5.06912 13.7692 5.0779 13.7661 5.08758C13.7631 5.09726 13.7623 5.10755 13.7641 5.11757L13.9207 6.04001C13.9226 6.05155 13.9213 6.06341 13.917 6.07425C13.9126 6.08509 13.9053 6.09448 13.896 6.10136C13.8866 6.10823 13.8755 6.11233 13.8639 6.11318C13.8524 6.11402 13.8408 6.11158 13.8306 6.10615L13.0102 5.67088C13.0013 5.66615 12.9914 5.66368 12.9813 5.66368C12.9713 5.66368 12.9613 5.66615 12.9524 5.67088L12.1324 6.10615C12.1222 6.1116 12.1106 6.11404 12.099 6.11321C12.0875 6.11237 12.0764 6.10828 12.067 6.1014C12.0576 6.09452 12.0504 6.08513 12.046 6.07428C12.0416 6.06343 12.0403 6.05155 12.0423 6.04001L12.1989 5.11757C12.2006 5.10755 12.1999 5.09726 12.1968 5.08758C12.1937 5.0779 12.1884 5.06912 12.1812 5.062L11.5177 4.4087C11.5094 4.40052 11.5036 4.39016 11.5008 4.3788C11.4981 4.36744 11.4985 4.35553 11.502 4.3444C11.5056 4.33327 11.5122 4.32337 11.5211 4.31583C11.5299 4.30828 11.5407 4.30338 11.5521 4.30168L12.469 4.1671C12.479 4.16563 12.4884 4.16173 12.4966 4.15575C12.5047 4.14976 12.5113 4.14188 12.5158 4.13276L12.9258 3.29348C12.9309 3.28296 12.9388 3.27411 12.9487 3.26791C12.9585 3.26172 12.9699 3.25844 12.9815 3.25844C12.9931 3.25844 13.0045 3.26172 13.0143 3.26791C13.0241 3.27411 13.0321 3.28296 13.0372 3.29348Z" fill="#1E1B4B" fill-opacity="0.6"/>
<path d="M8.25351 15.2312C7.96697 15.3514 7.67324 15.4534 7.3741 15.5366L7.31874 15.2082L8.07887 14.4592L8.06115 14.5671C8.04162 14.6799 8.04687 14.7957 8.07651 14.9063C8.10615 15.0168 8.15946 15.1195 8.23268 15.2069C8.23881 15.215 8.24613 15.2238 8.25351 15.2312Z" fill="#062B4C"/>
<path d="M9.71572 9.42543C9.71442 9.42811 9.71241 9.43139 9.71105 9.43485L9.10172 10.6822L7.73892 10.8824C7.59508 10.9035 7.45994 10.9649 7.34881 11.0596C7.23768 11.1542 7.155 11.2784 7.11008 11.418C7.06516 11.5577 7.05981 11.7073 7.09463 11.8498C7.12946 11.9924 7.20306 12.1223 7.30714 12.2248L7.70693 12.6183L6.42485 12.4302L5.69408 10.9348C5.62836 10.8 5.52663 10.6865 5.40036 10.6071C5.2741 10.5278 5.12835 10.4857 4.97965 10.4857C4.83094 10.4857 4.6852 10.5278 4.55894 10.6071C4.43267 10.6865 4.33093 10.8 4.26522 10.9348L3.53445 12.4302L1.90067 12.6703C1.75352 12.6919 1.61529 12.7547 1.5016 12.8515C1.38791 12.9483 1.3033 13.0754 1.25734 13.2183C1.21138 13.3611 1.20588 13.5141 1.24149 13.66C1.2771 13.8059 1.35241 13.9388 1.45886 14.0436L2.64078 15.208L2.61876 15.3375C1.7902 15.0284 1.01888 14.5809 0.336949 14.0138C0.16479 13.8723 0.0372977 13.5851 0.0226019 13.3558C-0.0815083 11.7613 0.150738 10.2449 1.22123 8.9801C1.48581 8.68189 1.76587 8.39808 2.06021 8.12985C3.00219 8.82094 4.13648 9.19315 5.30065 9.19315C6.46482 9.19315 7.59912 8.82094 8.5411 8.12985C8.83559 8.39789 9.11565 8.68172 9.38002 8.9801C9.50024 9.12195 9.61232 9.27064 9.71572 9.42543Z" fill="black" fill-opacity="0.6"/>
<path d="M8.81377 5.22472C9.2718 3.26465 8.07028 1.30059 6.13011 0.837864C4.18993 0.375138 2.2458 1.58897 1.78777 3.54904C1.32974 5.50911 2.53126 7.47317 4.47143 7.93589C6.41161 8.39862 8.35574 7.18478 8.81377 5.22472Z" fill="black" fill-opacity="0.7"/>
</g>
<defs>
<clipPath id="clip0_102_21">
<rect width="15" height="17" fill="white"/>
</clipPath>
</defs>
</svg>
