<svg width="30" height="22" viewBox="0 0 30 22" fill="none" xmlns="http://www.w3.org/2000/svg">
<g clip-path="url(#clip0_104_33)">
<path d="M20.9236 4.96067C21.1297 4.96008 21.3273 4.87933 21.4731 4.73607C21.6188 4.59281 21.701 4.39869 21.7016 4.19609V2.56754C21.7016 2.14703 21.3515 2.23797 20.9236 2.23797C20.9236 2.23797 20.1456 2.14703 20.1456 2.56754V4.19609C20.1462 4.39869 20.2284 4.59281 20.3741 4.73607C20.5199 4.87933 20.7174 4.96008 20.9236 4.96067Z" fill="#1E1B4B" fill-opacity="0.6"/>
<path d="M19.3551 3.38753H22.4922C23.2519 3.38753 23.8737 2.83334 23.8737 2.15602C23.8737 1.4786 23.2521 0.924423 22.4922 0.924423H19.3551C18.5954 0.924423 17.9736 1.4786 17.9736 2.15602C17.9736 2.83334 18.5953 3.38753 19.3551 3.38753Z" fill="#1E1B4B" fill-opacity="0.6"/>
<path d="M11.8474 13.0797C11.8474 13.1894 11.8493 13.2991 11.8539 13.408C11.8539 13.4179 11.8547 13.4287 11.8547 13.4395C11.8594 13.5303 11.863 13.6212 11.8694 13.712L11.8731 13.7111C12.0018 15.5923 12.7397 17.3837 13.979 18.823C14.1438 19.0164 14.3192 19.2044 14.5053 19.387C14.6914 19.5696 14.8827 19.742 15.0793 19.9042C16.2483 20.8751 17.6497 21.5373 19.1513 21.8282C19.4415 21.8849 19.7352 21.9263 20.029 21.9541L20.0282 21.9568L20.0766 21.9595C20.1261 21.9649 20.1765 21.9667 20.2268 21.9712C20.3283 21.9784 20.43 21.9856 20.5334 21.9901C20.5984 21.9928 20.6642 21.9937 20.7292 21.9946C20.7942 21.9955 20.8583 22 20.9242 22C20.948 22 20.9708 21.9982 20.9947 21.9982C21.0689 21.9973 21.143 21.9946 21.217 21.9919C21.3022 21.9892 21.3874 21.9865 21.4716 21.982C21.5402 21.9775 21.6089 21.9721 21.6775 21.9667C21.768 21.9595 21.8595 21.9514 21.9492 21.9415C22.0116 21.9343 22.0729 21.9263 22.1341 21.9182C22.2312 21.9056 22.3273 21.8921 22.4235 21.8759C22.4802 21.8669 22.536 21.857 22.5918 21.8462C22.6924 21.8282 22.7914 21.8084 22.8902 21.7877C22.9168 21.7814 22.9433 21.7769 22.9708 21.7715C23.0129 21.7616 23.055 21.7509 23.098 21.7401C23.1446 21.7284 23.1923 21.7176 23.2399 21.7059C23.3561 21.6753 23.4714 21.6429 23.5868 21.6087C23.6279 21.5961 23.6682 21.5826 23.7094 21.57C23.7973 21.5422 23.8851 21.5134 23.9721 21.4828L24.0928 21.4396C24.2128 21.3955 24.3326 21.3497 24.4517 21.3002C24.4599 21.2975 24.4681 21.293 24.4764 21.2903C24.5926 21.2417 24.708 21.1896 24.8224 21.1356C24.8471 21.1248 24.8718 21.1131 24.8965 21.1014C25.0137 21.0447 25.1308 20.9863 25.2471 20.9242C25.2484 20.9239 25.2497 20.9233 25.2507 20.9224C25.3761 20.8558 25.4996 20.7857 25.6223 20.7128C25.6305 20.7074 25.6387 20.7029 25.6461 20.6984C25.7569 20.6319 25.8658 20.5626 25.9738 20.4915L26.0149 20.4646C26.2401 20.3143 26.4588 20.1533 26.673 19.9815C26.6941 19.9635 26.7161 19.9456 26.7381 19.9285C26.8186 19.8619 26.8982 19.7935 26.9778 19.7243C27.0035 19.7009 27.029 19.6784 27.0555 19.655C27.1517 19.5687 27.2469 19.4805 27.3403 19.3888L27.343 19.3861C27.4364 19.2943 27.5261 19.2008 27.614 19.1063C27.6378 19.0811 27.6597 19.0559 27.6826 19.0317C27.7155 18.9957 27.7485 18.9606 27.7804 18.9246L27.7787 18.9228C29.1886 17.3367 29.979 15.3097 30.0086 13.2038C30.0383 11.0979 29.3053 9.05015 27.9406 7.4263L27.9435 7.4254C27.9114 7.38672 27.8775 7.34984 27.8446 7.31206C27.7997 7.26079 27.7549 7.20862 27.7092 7.15825C27.6542 7.09708 27.5966 7.03591 27.5389 6.97564C27.4895 6.92437 27.44 6.87219 27.3897 6.82182C27.3732 6.80563 27.3577 6.78855 27.3412 6.77236C27.2999 6.73098 27.2561 6.69319 27.2139 6.65362C27.16 6.60234 27.106 6.55018 27.0501 6.50071C26.9832 6.43954 26.9146 6.38107 26.8451 6.32351C26.7975 6.28213 26.7499 6.24075 26.7013 6.20118C26.6154 6.13191 26.5284 6.06535 26.4415 5.99969C26.4067 5.9736 26.3738 5.94662 26.3389 5.92143C26.2245 5.83748 26.1086 5.75682 25.9911 5.67946C25.9822 5.674 25.9736 5.66799 25.9654 5.66148C25.9634 5.6606 25.9615 5.65938 25.9599 5.65787C25.9151 5.62909 25.8703 5.60121 25.8254 5.57243C25.7595 5.53105 25.6927 5.48966 25.6258 5.45008C25.5829 5.424 25.5399 5.39791 25.4958 5.37273C25.3989 5.31696 25.3001 5.263 25.2002 5.21082C25.1591 5.18924 25.117 5.16764 25.0758 5.14695C24.9797 5.09838 24.8817 5.05071 24.7839 5.00483C24.761 4.99494 24.7381 4.98415 24.7152 4.97335C24.6063 4.92388 24.4945 4.87711 24.3829 4.83124C24.3564 4.82044 24.3299 4.80964 24.3033 4.79975C24.1789 4.75027 24.0543 4.70351 23.9271 4.66033C23.9253 4.65943 23.9235 4.65943 23.9217 4.65853C23.7908 4.61355 23.659 4.57217 23.5254 4.5326C23.5153 4.5299 23.5061 4.5272 23.496 4.5236C23.2251 4.44535 22.9478 4.37879 22.6668 4.32482L22.6512 4.32212C22.5121 4.29603 22.3712 4.27174 22.2301 4.25195C22.2261 4.25187 22.2221 4.25126 22.2182 4.25015C22.0882 4.23216 21.9583 4.21687 21.8273 4.20428L21.7715 4.19889C21.7478 4.19709 21.7249 4.19438 21.702 4.19168C21.6151 4.18449 21.5272 4.18089 21.4402 4.1755C21.4073 4.1737 21.3753 4.17099 21.3423 4.16919C21.2041 4.1638 21.0659 4.1602 20.9259 4.1602H20.9149C20.7767 4.1602 20.6403 4.1638 20.5049 4.16919C20.471 4.17099 20.4371 4.1737 20.4032 4.1764C20.3171 4.1809 20.2312 4.18449 20.146 4.19168C20.1232 4.19438 20.1003 4.19709 20.0764 4.19889C20.0564 4.20068 20.0362 4.20338 20.0161 4.20518C19.8879 4.21777 19.7598 4.23216 19.6335 4.25015L19.6152 4.25285C19.4753 4.27264 19.337 4.29513 19.1989 4.32122L19.175 4.32661C18.8968 4.37968 18.6238 4.44505 18.3559 4.5227C18.3422 4.5272 18.3284 4.5308 18.3146 4.5353C18.1875 4.57218 18.0611 4.61175 17.9367 4.65493C17.9294 4.65763 17.922 4.65943 17.9156 4.66213C17.793 4.70411 17.6712 4.74908 17.5504 4.79706C17.5193 4.80965 17.4872 4.82223 17.4562 4.83483C17.3536 4.8771 17.2521 4.92029 17.1514 4.96526L17.0388 5.01653C16.9519 5.05701 16.8667 5.09929 16.7807 5.14246C16.7331 5.16585 16.6855 5.19013 16.6388 5.21532C16.5464 5.26389 16.4548 5.31426 16.3642 5.36554C16.3111 5.39612 16.2581 5.42851 16.2058 5.45999C16.1492 5.49327 16.0932 5.52834 16.0375 5.56252C15.8563 5.67676 15.6781 5.79759 15.5029 5.92502C15.4782 5.94391 15.4544 5.9628 15.4297 5.98169C15.3327 6.05455 15.2367 6.12831 15.1415 6.20477C15.0994 6.23985 15.0573 6.27583 15.016 6.31181C14.9411 6.37478 14.867 6.43774 14.7937 6.50341C14.7415 6.55018 14.6903 6.59875 14.639 6.64732C14.5951 6.6896 14.5494 6.72918 14.5063 6.77236C14.4853 6.79305 14.4651 6.81373 14.444 6.83442C14.4175 6.8614 14.3919 6.88839 14.3654 6.91537C14.2784 7.00442 14.1933 7.09528 14.1109 7.18703C14.099 7.20052 14.0862 7.21311 14.0743 7.2266C13.9791 7.33454 13.887 7.44428 13.798 7.55582L13.7486 7.61789C13.6616 7.72763 13.5774 7.83886 13.496 7.9516C13.4932 7.95602 13.4902 7.96023 13.4868 7.9642C13.4 8.08653 13.3164 8.21036 13.2361 8.33569C13.2325 8.34289 13.227 8.34918 13.2233 8.35638C13.2122 8.37257 13.2032 8.38876 13.1931 8.40495C13.1546 8.46612 13.117 8.52728 13.0805 8.58934C13.065 8.61453 13.0502 8.64061 13.0357 8.6667C12.9991 8.72877 12.9633 8.79174 12.9286 8.8547C12.9139 8.88259 12.8984 8.91047 12.8837 8.93835C12.8517 8.99952 12.8188 9.06069 12.7885 9.12185C12.7712 9.15513 12.7546 9.18932 12.7391 9.2226C12.7107 9.27927 12.6842 9.33503 12.6576 9.3917C12.6383 9.43308 12.6201 9.47446 12.6018 9.51583C12.5799 9.56531 12.5579 9.61568 12.5368 9.66606C12.5158 9.71643 12.4956 9.76589 12.4755 9.81536C12.459 9.85854 12.4416 9.90082 12.4252 9.9431C12.4032 10.0016 12.3822 10.06 12.3611 10.1185C12.3483 10.1536 12.3354 10.1896 12.3236 10.2246C12.3007 10.2894 12.2797 10.3551 12.2595 10.4198C12.2494 10.4504 12.2394 10.481 12.2301 10.5116C12.2092 10.5799 12.19 10.6492 12.1707 10.7185C12.1625 10.7473 12.1542 10.7751 12.1469 10.8039C12.1277 10.8732 12.1113 10.9424 12.0939 11.0126C12.0892 11.0315 12.0837 11.0495 12.08 11.0684C12.0783 11.0765 12.0765 11.0837 12.0747 11.0918C12.0416 11.2366 12.0106 11.3832 11.985 11.5307C11.984 11.5334 11.984 11.5361 11.9831 11.5388C11.9584 11.6782 11.9382 11.8186 11.9198 11.9589C11.9172 11.9832 11.9136 12.0065 11.9107 12.0308C11.8943 12.173 11.8796 12.3151 11.8695 12.459C11.8686 12.4761 11.8677 12.4932 11.8668 12.5103C11.8585 12.6326 11.8539 12.7558 11.8511 12.8791C11.8503 12.9177 11.8494 12.9564 11.8494 12.9951C11.8484 13.023 11.8474 13.0518 11.8474 13.0797ZM12.7884 13.0806C12.7884 12.9501 12.792 12.8143 12.7983 12.6785C12.8002 12.6551 12.802 12.6317 12.8039 12.6083C12.8048 12.5966 12.8057 12.5858 12.8066 12.5741C12.812 12.4878 12.8186 12.3879 12.8286 12.2881C12.8323 12.2467 12.8378 12.2044 12.8433 12.1631L12.8497 12.1136L12.8542 12.0731C12.8615 12.0155 12.8688 11.9589 12.8771 11.9013C12.8854 11.8473 12.8945 11.7934 12.9046 11.7394L12.9119 11.6998L12.9193 11.6593C12.9275 11.6117 12.9356 11.5649 12.9449 11.5172C12.9577 11.4561 12.9714 11.3949 12.9861 11.3337L12.9915 11.3094L12.9998 11.2735C13.0099 11.2276 13.0209 11.1817 13.0318 11.1358C13.0474 11.0765 13.0638 11.018 13.0803 10.9595L13.0866 10.9362L13.094 10.9092C13.1087 10.8579 13.1234 10.8066 13.1389 10.7554C13.1545 10.7041 13.1719 10.6537 13.1892 10.6033L13.1983 10.5745L13.2046 10.5548C13.2248 10.4954 13.245 10.4369 13.266 10.3785C13.2806 10.3371 13.2971 10.2948 13.3136 10.2534L13.3256 10.2228C13.3511 10.1563 13.3804 10.0816 13.4125 10.007C13.4253 9.97548 13.44 9.944 13.4537 9.91252L13.4683 9.88013C13.5003 9.80907 13.537 9.72632 13.5773 9.64357C13.5882 9.62018 13.6001 9.59769 13.612 9.5743L13.6276 9.54371C13.6651 9.46906 13.7099 9.38001 13.7593 9.29006C13.7684 9.27387 13.7786 9.25677 13.7878 9.23968L13.8024 9.2136C13.8619 9.10926 13.9113 9.0247 13.958 8.94914L13.9826 8.90867L13.9964 8.88889C14.0605 8.78544 14.1162 8.69999 14.1712 8.61994C14.1795 8.60824 14.1877 8.59745 14.1951 8.58575L14.207 8.56956C14.2783 8.46701 14.3397 8.38247 14.3992 8.30331C14.4083 8.29252 14.4166 8.28172 14.4257 8.27093L14.4366 8.25563C14.5154 8.15399 14.5812 8.07214 14.6425 7.99838C14.6517 7.98758 14.6618 7.97679 14.671 7.966L14.682 7.9534C14.9942 7.58689 15.3391 7.24853 15.7126 6.94236L15.7217 6.93426C15.7319 6.92527 15.7429 6.91628 15.753 6.90818C15.8317 6.84432 15.9195 6.77685 16.0202 6.70129L16.0312 6.6932C16.0413 6.6851 16.0522 6.67701 16.0623 6.66981C16.1456 6.60865 16.2362 6.54478 16.3395 6.47552L16.3524 6.46652C16.3624 6.45933 16.3735 6.45213 16.3835 6.44584C16.4677 6.39007 16.5593 6.3316 16.6654 6.26774L16.681 6.25784C16.6929 6.25065 16.7057 6.24255 16.7177 6.23536C16.8 6.18678 16.8879 6.13731 16.995 6.07884L17.0187 6.06625C17.0343 6.05726 17.0499 6.04916 17.0645 6.04106C17.1624 5.98889 17.2585 5.94212 17.3318 5.90704L17.3611 5.89174C17.3821 5.88185 17.4032 5.87106 17.4241 5.86116C17.5102 5.82158 17.5954 5.78471 17.674 5.75052L17.707 5.73613C17.7363 5.72354 17.7647 5.71094 17.794 5.69925C17.8709 5.66776 17.9468 5.63898 18.0246 5.6102L18.0576 5.5976C18.0951 5.58321 18.1335 5.56882 18.1711 5.55533C18.2416 5.53104 18.3102 5.50855 18.377 5.48697L18.3833 5.48517L18.4173 5.47437C18.4631 5.45908 18.5088 5.44469 18.5546 5.4312C18.6122 5.41321 18.6717 5.39792 18.7303 5.38173L18.7532 5.37543L18.7861 5.36644C18.8373 5.35204 18.8885 5.33856 18.9408 5.32596C18.9948 5.31247 19.0487 5.30077 19.1028 5.28818L19.1358 5.28099L19.1732 5.27288C19.2255 5.26119 19.2767 5.2504 19.3288 5.2396C19.3882 5.22881 19.4478 5.21802 19.5073 5.20812L19.5384 5.20272L19.5824 5.19553C19.6281 5.18743 19.6739 5.18024 19.7196 5.17304C19.802 5.16135 19.8835 5.15146 19.9613 5.14246L19.9686 5.14156L20.0143 5.13616C20.0473 5.13256 20.0793 5.12806 20.1123 5.12536C20.223 5.11457 20.3365 5.10558 20.4618 5.09929L20.472 5.09839L20.5094 5.09569C20.6477 5.08849 20.7877 5.08579 20.9231 5.08579C21.0586 5.08579 21.1987 5.08849 21.3368 5.09569L21.3789 5.09839L21.3937 5.09929C21.5191 5.10648 21.6298 5.11457 21.7332 5.12536C21.7689 5.12896 21.8046 5.13256 21.8394 5.13706L21.887 5.14336L21.907 5.14516C21.9775 5.15326 22.0508 5.16225 22.1259 5.17304C22.1753 5.18024 22.2248 5.18833 22.2742 5.19733L22.3163 5.20452L22.3529 5.21082C22.4068 5.21982 22.4618 5.22881 22.5158 5.2396C22.5724 5.2504 22.6293 5.26299 22.6869 5.27559L22.7181 5.28278L22.75 5.28998C22.8013 5.30167 22.8526 5.31247 22.9039 5.32506C22.9615 5.33945 23.0183 5.35475 23.0759 5.37094L23.1015 5.37723L23.129 5.38532C23.183 5.39971 23.236 5.41411 23.2901 5.4303C23.3404 5.44559 23.3917 5.46178 23.442 5.47797L23.4713 5.48787L23.4859 5.49237C23.5482 5.51216 23.6114 5.53284 23.6727 5.55443C23.7139 5.56882 23.7541 5.58411 23.7952 5.5994L23.8301 5.6129C23.8978 5.63808 23.9738 5.66686 24.0498 5.69835C24.0827 5.71184 24.1148 5.72534 24.1476 5.73973L24.1807 5.75412C24.2529 5.7847 24.3363 5.82068 24.4196 5.86026C24.4443 5.87195 24.469 5.88365 24.4945 5.89624L24.5248 5.91153C24.5998 5.94751 24.6887 5.99159 24.7784 6.03836C24.7967 6.04915 24.8159 6.05905 24.8341 6.06984L24.8626 6.08514C24.9678 6.1427 25.0493 6.18858 25.1253 6.23356C25.1408 6.24255 25.1555 6.25154 25.171 6.26144L25.1939 6.27583C25.2982 6.3388 25.3824 6.39186 25.4593 6.44314C25.474 6.45213 25.4877 6.46203 25.5023 6.47193L25.5234 6.48721C25.6277 6.55737 25.7064 6.61224 25.7806 6.66621C25.7961 6.6779 25.8117 6.6905 25.8273 6.70219L25.8501 6.71929C25.9215 6.77236 26.0057 6.83712 26.0908 6.90548C26.1091 6.92077 26.1274 6.93607 26.1457 6.95226C26.1557 6.95945 26.1648 6.96755 26.1741 6.97564C26.2464 7.03501 26.3187 7.09527 26.39 7.15914C26.4157 7.18162 26.4404 7.20501 26.4642 7.2284C26.477 7.24009 26.4889 7.25179 26.5008 7.26258C28.0511 8.69637 28.9673 10.6706 29.0525 12.761C29.1377 14.8515 28.3851 16.8914 26.9565 18.4425C26.8587 18.5486 26.7672 18.6431 26.6756 18.733C26.5777 18.8293 26.477 18.9237 26.3745 19.0137C26.3663 19.0209 26.3579 19.029 26.3498 19.0362L26.3442 19.0407C26.25 19.1234 26.1611 19.1981 26.0724 19.2691C26.0485 19.2889 26.023 19.3078 25.9983 19.3267L25.9626 19.3546C25.8976 19.405 25.8308 19.4571 25.7604 19.5084C25.7246 19.5345 25.6881 19.5597 25.6514 19.5848L25.6138 19.6109L25.5891 19.628C25.5389 19.6631 25.4876 19.6982 25.4363 19.7324C25.3933 19.7602 25.3485 19.7881 25.3046 19.8151L25.2734 19.8349L25.2505 19.8493C25.2001 19.8808 25.1508 19.9114 25.0994 19.942C25.0556 19.968 25.0098 19.9932 24.965 20.0184L24.9348 20.0346L24.9165 20.0454C24.8615 20.076 24.8066 20.1066 24.7509 20.1353C24.7097 20.1569 24.6685 20.1776 24.6263 20.1983L24.5944 20.2145L24.587 20.2181C24.5239 20.2496 24.458 20.282 24.3894 20.3134C24.3546 20.3296 24.3198 20.3458 24.2841 20.3611L24.2502 20.3755C24.177 20.4079 24.1 20.4421 24.0196 20.4745C23.9911 20.4861 23.9627 20.4969 23.9345 20.5077L23.9015 20.5203C23.8201 20.5518 23.7331 20.5851 23.6416 20.6166C23.6205 20.6238 23.5985 20.631 23.5766 20.6382L23.5464 20.6481C23.4328 20.6858 23.3441 20.7146 23.2589 20.7389C23.2425 20.7443 23.226 20.7488 23.2095 20.7533L23.1858 20.7596C23.0668 20.7938 22.967 20.8199 22.8737 20.8424C22.8608 20.846 22.847 20.8487 22.8334 20.8513L22.8151 20.8558C22.6934 20.8837 22.5863 20.9071 22.4866 20.926C22.4738 20.9287 22.4628 20.9305 22.4509 20.9323L22.4363 20.935C22.3136 20.9584 22.2028 20.9764 22.0976 20.9917C22.0857 20.9935 22.0747 20.9944 22.0628 20.9962L22.05 20.9971C21.9237 21.0151 21.8111 21.0276 21.7068 21.0375L21.671 21.0402L21.661 21.0411C21.4166 21.0627 21.1676 21.0744 20.9224 21.0744C18.8346 21.0744 16.8266 20.2854 15.3144 18.8707C13.8021 17.456 12.9012 15.5239 12.7983 13.4745C12.792 13.3315 12.7884 13.2029 12.7884 13.0806Z" fill="#1E1B4B" fill-opacity="0.6"/>
<path d="M15.4946 18.4149C16.2898 19.198 17.251 19.7993 18.3096 20.1758C19.3682 20.5523 20.4982 20.6949 21.6193 20.5934C21.6339 20.592 21.6487 20.5914 21.6632 20.59C21.7712 20.5798 21.879 20.5666 21.9866 20.5519C22.0017 20.5498 22.0171 20.5484 22.0324 20.5462C22.1393 20.5309 22.2459 20.5129 22.3522 20.4932C22.3678 20.4903 22.3835 20.4879 22.399 20.485C22.503 20.465 22.6064 20.4423 22.7097 20.4181C22.728 20.4139 22.7463 20.4101 22.7646 20.4057C22.8632 20.382 22.9612 20.3554 23.0589 20.3277C23.082 20.3212 23.1052 20.3151 23.1283 20.3083C23.2193 20.2813 23.3097 20.2524 23.3999 20.2222C23.4297 20.2122 23.4598 20.2028 23.4895 20.1924C23.5718 20.1638 23.6533 20.1329 23.7346 20.1015C23.7717 20.0871 23.8091 20.0733 23.8459 20.0584C23.9191 20.0288 23.9912 19.9973 24.0635 19.9655C24.1076 19.9461 24.1518 19.927 24.1954 19.9069C24.2601 19.8769 24.3236 19.8451 24.3876 19.8133C24.437 19.7888 24.4865 19.7646 24.5353 19.7389C24.5936 19.7083 24.6512 19.676 24.7093 19.6438C24.7614 19.6147 24.8138 19.586 24.8648 19.5558C24.9198 19.5233 24.974 19.4891 25.0284 19.4553C25.0798 19.4232 25.1318 19.3915 25.1825 19.3582C25.2388 19.3212 25.2943 19.2822 25.35 19.2435C25.3962 19.2114 25.4428 19.1799 25.4882 19.1468C25.5528 19.0998 25.6164 19.0506 25.6793 19.0013C25.7138 18.9743 25.7492 18.9485 25.7832 18.9211C25.8698 18.8514 25.9551 18.7794 26.0391 18.7052C26.0488 18.6968 26.0587 18.6889 26.0683 18.6803C26.1647 18.5947 26.2593 18.5062 26.3521 18.4149C26.4436 18.325 26.5316 18.2336 26.6175 18.1408C27.9655 16.6768 28.6755 14.7516 28.5949 12.7787C28.5143 10.8059 27.6496 8.94277 26.1866 7.58963C26.1517 7.55734 26.1176 7.5237 26.0822 7.49212C26.0155 7.43267 25.9468 7.37519 25.8781 7.31834C25.8517 7.29639 25.8261 7.27337 25.7995 7.25205C25.7251 7.19188 25.6489 7.13394 25.5722 7.07655C25.5504 7.06009 25.5289 7.04292 25.5069 7.02681C25.4274 6.96862 25.3461 6.91249 25.2642 6.85726C25.244 6.84349 25.224 6.82919 25.2036 6.8157C25.1212 6.76173 25.0379 6.70938 24.9537 6.65828C24.9319 6.64497 24.9103 6.63131 24.8884 6.61809C24.8068 6.56969 24.7236 6.52336 24.6402 6.47793C24.6137 6.46345 24.5875 6.44853 24.5609 6.43441C24.4822 6.39276 24.4022 6.35345 24.3218 6.31414C24.2886 6.29804 24.2555 6.28131 24.2221 6.26575C24.1481 6.23103 24.0729 6.19828 23.9975 6.1659C23.9563 6.14791 23.9151 6.12993 23.8739 6.1131C23.8054 6.08513 23.7361 6.05913 23.6666 6.03277C23.6171 6.01424 23.5676 5.99518 23.5179 5.97764C23.455 5.95542 23.3913 5.935 23.3276 5.91467C23.2708 5.89668 23.214 5.87752 23.1567 5.8607C23.0979 5.84316 23.0383 5.82733 22.9788 5.81114C22.9168 5.79423 22.8548 5.77696 22.7924 5.76167C22.7344 5.74746 22.6759 5.73468 22.6174 5.722C22.5533 5.70788 22.4902 5.69339 22.4263 5.68089C22.364 5.66875 22.3011 5.65859 22.2383 5.64788C22.1784 5.63772 22.1186 5.62683 22.0584 5.6181C21.9836 5.60713 21.9082 5.59859 21.8326 5.58986C21.7844 5.5842 21.7363 5.57754 21.6879 5.57287C21.5819 5.56252 21.475 5.55487 21.3676 5.54893C21.3493 5.54785 21.3315 5.54596 21.3135 5.54506C21.1842 5.53877 21.054 5.53553 20.923 5.53535C20.7921 5.53517 20.6617 5.53844 20.5319 5.54515C20.5169 5.54587 20.5019 5.5474 20.4869 5.5483C20.3764 5.55433 20.2664 5.56225 20.1574 5.57287C20.1116 5.57736 20.0668 5.58366 20.0215 5.58896C19.9429 5.59796 19.8643 5.60696 19.7865 5.61829C19.7293 5.62666 19.6724 5.63699 19.6155 5.64671C19.5496 5.65777 19.4835 5.66848 19.4182 5.68125C19.3573 5.69322 19.2968 5.70706 19.2361 5.72037C19.1754 5.73369 19.1127 5.74737 19.0516 5.7623C18.9924 5.77687 18.9335 5.79324 18.8746 5.80916C18.8119 5.82625 18.749 5.84298 18.6868 5.8616C18.6329 5.87761 18.5795 5.89533 18.5259 5.91261C18.4589 5.93428 18.3917 5.95587 18.3255 5.97926C18.2792 5.99554 18.2332 6.01325 18.1871 6.03052C18.1139 6.05751 18.0411 6.08549 17.9691 6.11499C17.9315 6.13037 17.8942 6.14692 17.8568 6.16293C17.7775 6.19693 17.6984 6.23138 17.6206 6.2679C17.5914 6.28158 17.5624 6.29624 17.5333 6.31028C17.4487 6.35129 17.3645 6.39294 17.2817 6.43692C17.2598 6.44853 17.2382 6.46094 17.2163 6.4729C17.128 6.52076 17.0405 6.56969 16.9543 6.62096C16.9377 6.63086 16.9213 6.64138 16.9046 6.65145C16.8149 6.70542 16.7261 6.7611 16.6392 6.81876C16.6253 6.82776 16.6118 6.83773 16.5979 6.84709C16.5093 6.90655 16.4217 6.96718 16.3359 7.03014C16.3225 7.03995 16.3096 7.05038 16.2964 7.06027C16.2108 7.12387 16.1261 7.18854 16.0434 7.25564C16.0306 7.26599 16.0182 7.27715 16.0055 7.28758C15.6531 7.57693 15.3276 7.89655 15.033 8.24267C15.0208 8.25697 15.008 8.27083 14.9964 8.28513C14.9297 8.36455 14.8655 8.44595 14.8022 8.52799C14.7905 8.54301 14.7782 8.55776 14.7667 8.57296C14.7043 8.65527 14.6441 8.73937 14.585 8.8241C14.5739 8.84002 14.5622 8.85568 14.5513 8.8716C14.4944 8.95472 14.4397 9.03954 14.3861 9.12499C14.3741 9.14406 14.3616 9.16286 14.3495 9.18202C14.299 9.26405 14.2509 9.34753 14.203 9.43163C14.1895 9.45583 14.1755 9.47976 14.1619 9.50404C14.1187 9.58275 14.0777 9.66289 14.0373 9.7433C14.0215 9.77461 14.0052 9.80573 13.9899 9.83722C13.9543 9.9108 13.9207 9.98545 13.8874 10.0603C13.8697 10.1003 13.8513 10.1402 13.8343 10.1804C13.8058 10.2477 13.7794 10.3158 13.7527 10.3839C13.7337 10.4329 13.7142 10.4816 13.6962 10.5308C13.6739 10.592 13.6534 10.6539 13.6326 10.7158C13.6136 10.7725 13.5942 10.8292 13.5766 10.8867C13.559 10.9441 13.5435 11 13.5274 11.0568C13.5097 11.1198 13.4917 11.1828 13.4756 11.2457C13.4618 11.2997 13.4498 11.3548 13.4372 11.4095C13.4221 11.4749 13.4067 11.5404 13.3934 11.6063C13.3819 11.663 13.3724 11.7204 13.3623 11.7776C13.351 11.8411 13.3392 11.9045 13.3296 11.9682C13.3196 12.0344 13.3119 12.1013 13.3037 12.168C13.2969 12.2231 13.2891 12.278 13.2836 12.3332C13.2745 12.4226 13.2684 12.5131 13.2627 12.603C13.2606 12.6358 13.2572 12.6685 13.2555 12.7013C13.2492 12.8272 13.2457 12.9538 13.2457 13.0812C13.2457 13.2062 13.2493 13.3301 13.2549 13.4536C13.3467 15.3238 14.1453 17.093 15.4946 18.4149Z" fill="black" fill-opacity="0.7"/>
<path d="M20.9237 8.72202C20.7684 8.72167 20.6197 8.66091 20.5099 8.55303C20.4001 8.44514 20.3383 8.29892 20.3379 8.14635V6.74528C20.3383 6.59271 20.4001 6.44649 20.5099 6.33861C20.6197 6.23073 20.7684 6.16996 20.9237 6.1696C21.0789 6.17001 21.2277 6.23079 21.3374 6.33866C21.4472 6.44654 21.509 6.59273 21.5094 6.74528V8.14653C21.509 8.29908 21.4472 8.44527 21.3374 8.55315C21.2277 8.66102 21.0789 8.72181 20.9237 8.72221V8.72202Z" fill="white"/>
<path d="M25.3577 13.0797C25.3581 12.9271 25.42 12.7809 25.5298 12.673C25.6395 12.5652 25.7883 12.5044 25.9435 12.504H27.3693C27.5245 12.5044 27.6732 12.5652 27.783 12.6731C27.8927 12.781 27.9546 12.9271 27.9551 13.0797C27.9547 13.2322 27.8928 13.3784 27.783 13.4863C27.6733 13.5941 27.5246 13.6549 27.3693 13.6553H25.9433C25.7881 13.655 25.6393 13.5942 25.5295 13.4863C25.4198 13.3785 25.3579 13.2322 25.3576 13.0797H25.3577Z" fill="white"/>
<path d="M20.9237 17.4373C21.0789 17.4377 21.2276 17.4985 21.3374 17.6064C21.4471 17.7143 21.509 17.8604 21.5094 18.013V19.4142C21.509 19.5668 21.4472 19.713 21.3374 19.8208C21.2277 19.9287 21.0789 19.9895 20.9237 19.9899C20.7684 19.9895 20.6197 19.9288 20.5099 19.8209C20.4001 19.713 20.3383 19.5668 20.3379 19.4142V18.0124C20.3383 17.8599 20.4002 17.7137 20.5099 17.6058C20.6197 17.4979 20.7684 17.4372 20.9237 17.4368V17.4373Z" fill="white"/>
<path d="M16.4896 13.0797C16.4892 13.2322 16.4274 13.3785 16.3176 13.4863C16.2078 13.5942 16.059 13.655 15.9038 13.6553H14.4781C14.3228 13.655 14.174 13.5942 14.0643 13.4863C13.9545 13.3785 13.8927 13.2322 13.8923 13.0797C13.8927 12.9271 13.9545 12.7809 14.0643 12.673C14.1741 12.5652 14.3228 12.5044 14.4781 12.504H15.9038C16.059 12.5044 16.2078 12.5652 16.3175 12.673C16.4273 12.7809 16.4891 12.9271 16.4896 13.0797Z" fill="white"/>
<path d="M21.7213 13.6535L21.5057 13.8193L21.2901 13.985C21.2484 14.017 21.1955 14.0314 21.143 14.0251C21.0904 14.0188 21.0426 13.9923 21.0099 13.9514L19.8383 12.4801L18.6668 11.0086C18.6344 10.9676 18.6198 10.9156 18.6262 10.864C18.6326 10.8125 18.6595 10.7655 18.701 10.7333L18.9167 10.5675L19.1322 10.4018C19.174 10.3699 19.2269 10.3555 19.2793 10.3618C19.3318 10.3681 19.3797 10.3946 19.4124 10.4354L20.5839 11.9068L21.7555 13.3781C21.788 13.4191 21.8026 13.4712 21.7962 13.5228C21.7898 13.5744 21.7629 13.6214 21.7213 13.6535Z" fill="white"/>
<path d="M20.2725 13.8519L20.1038 13.64L19.9352 13.4282C19.9027 13.3872 19.8881 13.3352 19.8945 13.2836C19.9009 13.232 19.9278 13.1849 19.9694 13.1528L21.0971 12.2858L22.2249 11.4186C22.2667 11.3868 22.3196 11.3724 22.3721 11.3787C22.4245 11.385 22.4724 11.4115 22.5051 11.4523L22.6738 11.6642L22.8424 11.876C22.8749 11.9171 22.8894 11.969 22.883 12.0206C22.8767 12.0722 22.8498 12.1192 22.8082 12.1514L21.6804 13.0185L20.5526 13.8855C20.5109 13.9175 20.458 13.9319 20.4055 13.9256C20.353 13.9193 20.3051 13.8928 20.2725 13.8519Z" fill="white"/>
<path d="M8.07087 12.512L6.08287 14.114C6.01314 14.167 5.92517 14.1911 5.83761 14.1814C5.75004 14.1716 5.6698 14.1286 5.61393 14.0617C5.55805 13.9947 5.53094 13.909 5.53836 13.8227C5.54577 13.7364 5.58711 13.6563 5.65361 13.5995L7.31308 12.2628C7.56039 12.3606 7.81346 12.4438 8.07087 12.512Z" fill="#1E1B4B" fill-opacity="0.6"/>
<path d="M6.61831 11.9435L4.06926 13.998C3.99953 14.0509 3.91156 14.0751 3.824 14.0653C3.73643 14.0556 3.65619 14.0126 3.60032 13.9456C3.54444 13.8787 3.51733 13.7929 3.52475 13.7066C3.53216 13.6203 3.5735 13.5403 3.64 13.4835L6.00599 11.5774C6.2033 11.7101 6.40769 11.8323 6.61831 11.9435Z" fill="#1E1B4B" fill-opacity="0.6"/>
<path d="M5.44044 11.1546L2.28735 13.6948C2.21765 13.7481 2.12953 13.7725 2.04177 13.7629C1.95401 13.7533 1.87351 13.7103 1.81751 13.6432C1.76151 13.5761 1.73443 13.4901 1.74198 13.4037C1.74954 13.3172 1.79118 13.2371 1.858 13.1803L4.9407 10.6959C5.09895 10.8569 5.26644 11.0098 5.44044 11.1546Z" fill="#1E1B4B" fill-opacity="0.6"/>
<path d="M3.74252 9.0462L0.552786 11.6161C0.483081 11.6716 0.393878 11.6979 0.304572 11.6891C0.215266 11.6804 0.133088 11.6373 0.0759323 11.5693C0.0194268 11.501 -0.0072606 11.4134 0.00165572 11.3258C0.010572 11.2382 0.0543702 11.1576 0.123528 11.1016L3.45788 8.41476C3.54116 8.63012 3.63617 8.8409 3.74252 9.0462Z" fill="#1E1B4B" fill-opacity="0.6"/>
<path d="M4.48584 10.1859L0.557499 13.3512C0.487803 13.4068 0.398553 13.4331 0.30924 13.4243C0.219927 13.4156 0.137743 13.3725 0.0806002 13.3045C0.0311044 13.2451 0.00424707 13.1707 0.00458071 13.094C0.00448544 13.0446 0.0155102 12.9959 0.0368924 12.9512C0.0582745 12.9066 0.0894438 12.8672 0.128196 12.8358L4.09042 9.64258C4.21256 9.83028 4.34456 10.0116 4.48584 10.1859Z" fill="#1E1B4B" fill-opacity="0.6"/>
<path d="M3.22998 7.72034L0.599511 9.83957C0.549911 9.87934 0.489833 9.90448 0.426288 9.91208C0.362743 9.91967 0.298316 9.90941 0.240463 9.88249C0.182609 9.85556 0.133701 9.81307 0.0994178 9.75995C0.0651342 9.70682 0.0468909 9.64523 0.0467717 9.58232C0.0465428 9.5331 0.0575248 9.48444 0.0789046 9.43993C0.100284 9.39541 0.131529 9.35617 0.170343 9.32506L3.07812 6.98186C3.11456 7.23063 3.16527 7.47718 3.22998 7.72034Z" fill="#1E1B4B" fill-opacity="0.6"/>
<path d="M3.00664 6.01219C3.00664 6.06166 3.00765 6.11024 3.00848 6.15971L0.878633 7.87596C0.808904 7.92892 0.720932 7.95307 0.633369 7.94331C0.545805 7.93354 0.465565 7.89062 0.40969 7.82364C0.353814 7.75667 0.326705 7.67093 0.334117 7.58463C0.341529 7.49833 0.382867 7.41826 0.449375 7.36144L3.04874 5.26651C3.02037 5.51409 3.00632 5.76304 3.00664 6.01219Z" fill="#1E1B4B" fill-opacity="0.6"/>
<path d="M3.73897 6.01226C3.73976 6.89704 3.93908 7.77078 4.32272 8.57121C4.70636 9.37164 5.26489 10.0791 5.9585 10.6431C6.65212 11.2072 7.46375 11.614 8.33562 11.8346C9.20749 12.0552 10.1181 12.0841 11.0027 11.9193C11.0036 11.9067 11.0063 11.8923 11.0081 11.877L11.01 11.8599C11.0109 11.8554 11.0109 11.8491 11.0117 11.8446C11.0356 11.6656 11.0575 11.5199 11.0814 11.3841C11.0824 11.3759 11.0839 11.3678 11.0859 11.3598C11.1107 11.2204 11.1408 11.0729 11.1811 10.8957L11.1848 10.8795C11.1921 10.8471 11.1985 10.8219 11.2031 10.8057L11.204 10.8003L11.214 10.7598C11.2296 10.6978 11.2442 10.6366 11.2617 10.5754C11.2689 10.5467 11.2773 10.5188 11.2855 10.49L11.2881 10.4783C11.3084 10.4063 11.3294 10.3326 11.3532 10.2543C11.3633 10.2192 11.3752 10.185 11.3862 10.15C11.4045 10.0906 11.4282 10.0151 11.4566 9.935C11.4704 9.89542 11.4849 9.85403 11.4997 9.81446C11.5206 9.75599 11.5427 9.69393 11.5664 9.63096C11.5674 9.62827 11.5692 9.62466 11.5701 9.62196C11.5784 9.60127 11.5856 9.58149 11.5939 9.5608C11.6022 9.54011 11.6103 9.52032 11.6186 9.49963C11.6205 9.49333 11.6232 9.48794 11.6251 9.48164L11.637 9.45197C11.6553 9.40879 11.6726 9.36471 11.6908 9.32153C11.7137 9.26666 11.7386 9.2109 11.7624 9.15603L11.7651 9.15152C11.7843 9.10655 11.8045 9.06247 11.8255 9.0175C11.8539 8.95543 11.8823 8.89606 11.9125 8.8358C11.9325 8.79262 11.9509 8.75575 11.9691 8.72067C11.9939 8.6703 12.0204 8.61992 12.0469 8.56955L12.0698 8.52637C12.0789 8.50838 12.089 8.4913 12.0983 8.47331L12.1155 8.44182C12.1184 8.43642 12.1211 8.43103 12.1239 8.42563C12.1641 8.35277 12.2016 8.28621 12.2383 8.22414C12.2566 8.19266 12.2739 8.16208 12.2923 8.13149C12.3298 8.06943 12.3692 8.00377 12.414 7.93271L12.4159 7.93001C12.4241 7.91561 12.4332 7.90122 12.4424 7.88683C12.4459 7.87963 12.4506 7.87334 12.4543 7.86704C12.457 7.86345 12.4598 7.85895 12.4625 7.85445C12.5559 7.70963 12.6456 7.5765 12.7362 7.44877C12.7399 7.44428 12.7434 7.43888 12.7471 7.43438C12.7481 7.43258 12.749 7.43168 12.7499 7.42988C12.8415 7.30395 12.9348 7.18072 13.0264 7.06559L13.0766 7.00261C13.1719 6.88208 13.2753 6.75975 13.3824 6.63742C13.3961 6.62213 13.4099 6.60774 13.4227 6.59425L13.4245 6.59155C13.5151 6.4917 13.6094 6.39096 13.7044 6.29292L13.7411 6.25513C13.7557 6.23984 13.7704 6.22455 13.7858 6.20926C13.7896 6.20517 13.7936 6.20126 13.7978 6.19757L13.8216 6.17328C13.8326 6.16248 13.8445 6.15079 13.8555 6.1391C13.893 6.10222 13.9287 6.06894 13.9571 6.04285C13.9708 6.03026 13.9854 6.01766 13.9982 6.00507C14.0001 6.00327 14.0018 6.00148 14.0037 5.99968C14.0596 5.94661 14.1162 5.89353 14.1767 5.83867C14.26 5.76491 14.3406 5.69654 14.4147 5.63358C14.4595 5.5949 14.5044 5.55622 14.5492 5.51844C14.5538 5.51484 14.5575 5.51214 14.562 5.50854C14.6545 5.43389 14.7524 5.35832 14.8696 5.27017L14.8979 5.24859C14.9126 5.23689 14.9263 5.2261 14.941 5.21531C14.9465 5.21081 14.952 5.20721 14.9566 5.20271C15.1433 5.06689 15.34 4.93377 15.5433 4.80514C15.5468 4.80337 15.5502 4.80125 15.5533 4.79884L15.5963 4.77276C15.6412 4.74487 15.686 4.71699 15.7318 4.6909L15.7518 4.67831C15.7721 4.66571 15.7931 4.65312 15.8142 4.64052C15.4716 3.20443 14.6038 1.94221 13.3759 1.09394C12.148 0.245677 10.6457 -0.129449 9.15472 0.039924C7.66375 0.209296 6.28815 0.911349 5.28957 2.01254C4.29098 3.11373 3.73918 4.53723 3.73897 6.01226Z" fill="#1E1B4B" fill-opacity="0.6"/>
<path d="M11.7514 7.06182C11.7661 6.73989 11.6651 6.42314 11.4661 6.167C11.293 5.95649 11.0692 5.79183 10.8148 5.68801C10.5151 5.5733 10.2074 5.47952 9.89425 5.40736C9.46627 5.30284 9.28416 5.21487 9.20681 5.15955C9.16622 5.12937 9.13435 5.08924 9.11448 5.04318C9.09461 4.99712 9.08741 4.94674 9.09357 4.89708C9.0908 4.8307 9.10477 4.76467 9.13419 4.70486C9.16362 4.64504 9.20762 4.59329 9.26228 4.55419C9.39151 4.45587 9.58754 4.40595 9.84482 4.40595C10.3686 4.40595 10.6218 4.59071 10.6658 5.03956C10.6719 5.09207 10.6983 5.14028 10.7395 5.1742C10.7807 5.20812 10.8337 5.22516 10.8873 5.2218H11.4286C11.4575 5.22454 11.4867 5.22138 11.5143 5.21251C11.5419 5.20364 11.5673 5.18925 11.589 5.17026C11.6096 5.15056 11.6258 5.12683 11.6365 5.1006C11.6472 5.07436 11.6521 5.04621 11.651 5.01797C11.6314 4.51101 11.4501 4.1137 11.1122 3.82946C10.8829 3.64102 10.6079 3.51399 10.3139 3.46067V2.92052C10.3139 2.89303 10.3028 2.86668 10.283 2.84724C10.2632 2.82781 10.2364 2.81689 10.2085 2.81689H9.66847C9.64051 2.81689 9.61366 2.82781 9.59388 2.84724C9.57411 2.86668 9.563 2.89303 9.563 2.92052V3.42819C9.20233 3.45689 8.86068 3.59905 8.58869 3.8336C8.43248 3.97029 8.3085 4.13881 8.22535 4.32742C8.14221 4.51604 8.10191 4.7202 8.10728 4.92568C8.10012 5.10305 8.13019 5.27996 8.19563 5.44541C8.26108 5.61086 8.36047 5.76129 8.48765 5.88734C8.72818 6.11932 9.10035 6.29257 9.62535 6.41661C10.081 6.52455 10.4014 6.63204 10.5772 6.73665C10.6644 6.78846 10.7647 6.87769 10.7647 7.10967C10.7687 7.18803 10.7528 7.26612 10.7184 7.3369C10.6839 7.40767 10.632 7.46889 10.5674 7.51499C10.3861 7.63615 10.1694 7.69541 9.95047 7.68364C9.69728 7.69241 9.44813 7.61943 9.24114 7.47587C9.06238 7.34751 8.96406 7.15609 8.94072 6.87203C8.93579 6.8182 8.91005 6.76827 8.86877 6.73256C8.82749 6.69684 8.77384 6.67806 8.71888 6.68007H8.18334C8.15411 6.67842 8.12481 6.68266 8.09731 6.69255C8.06981 6.70243 8.04469 6.71775 8.02344 6.73755C8.00276 6.75771 7.98651 6.78185 7.97575 6.80845C7.965 6.83506 7.95995 6.86356 7.96092 6.89218C7.96183 7.36942 8.15018 7.82788 8.48666 8.17198C8.74724 8.43418 9.10904 8.59385 9.56256 8.65258V9.10486C9.56256 9.13234 9.57366 9.1587 9.59344 9.17813C9.61321 9.19757 9.64002 9.20848 9.66798 9.20848H10.208C10.236 9.20848 10.2628 9.19757 10.2826 9.17813C10.3023 9.1587 10.3135 9.13234 10.3135 9.10486V8.65402C10.6636 8.60874 10.9908 8.45755 11.2497 8.22137C11.4123 8.07417 11.5411 7.89463 11.6276 7.6947C11.7142 7.49477 11.7564 7.27903 11.7514 7.06182Z" fill="white"/>
</g>
<defs>
<clipPath id="clip0_104_33">
<rect width="30" height="22" fill="white"/>
</clipPath>
</defs>
</svg>
