<svg width="40" height="38" viewBox="0 0 30 28" fill="none" xmlns="http://www.w3.org/2000/svg">
<g clip-path="url(#clip0_102_6)">
<path d="M6.33248 1.96428H8.52453V5.9228H6.33248C5.80789 5.9228 5.30478 5.71428 4.93383 5.34309C4.56289 4.97191 4.35449 4.46847 4.35449 3.94354C4.35449 3.41861 4.56289 2.91518 4.93383 2.54399C5.30478 2.17281 5.80789 1.96428 6.33248 1.96428Z" fill="#1E1B4B" fill-opacity="0.6"/>
<path d="M25.9821 3.847V5.9228H23.4607V1.96428H24.1005C24.5991 1.96571 25.0768 2.16452 25.4293 2.51729C25.7819 2.87006 25.9806 3.3481 25.9821 3.847Z" fill="#1E1B4B" fill-opacity="0.6"/>
<path d="M18.5104 15.0799V18.4851C18.5112 19.1714 18.7841 19.8294 19.2691 20.3147C19.754 20.7999 20.4116 21.0729 21.0974 21.0737H28.4212V23.0435C28.4194 23.688 28.1627 24.3056 27.7073 24.7613C27.2518 25.217 26.6347 25.4738 25.9906 25.4756H10.1605C10.8596 24.533 11.2298 23.3866 11.2141 22.2128C11.2141 20.9455 10.8708 19.8829 10.1922 19.0546C10.0001 18.8184 9.7894 18.598 9.562 18.3957C9.90198 18.34 10.215 18.1762 10.4546 17.9286C10.6186 17.7613 10.7468 17.5623 10.8315 17.3439C10.9162 17.1254 10.9556 16.8919 10.9472 16.6578C10.8825 14.9551 10.2651 13.5913 9.10929 12.6029C8.60573 12.1734 8.02894 11.8382 7.40657 11.6133V11.0439C7.40611 10.658 7.25272 10.288 6.98002 10.0151C6.70731 9.74227 6.33755 9.58875 5.95189 9.58829H4.52208C4.46629 9.58845 4.41059 9.59161 4.35513 9.59774V3.96384C4.35867 4.12741 4.40097 4.80872 4.89762 5.30062C5.09236 5.508 5.32956 5.67086 5.593 5.77807C5.85643 5.88529 6.13994 5.93435 6.42406 5.92186H25.9911C26.6351 5.92379 27.2522 6.18067 27.7075 6.63639C28.1628 7.09211 28.4194 7.70964 28.4212 8.35406V12.4912H21.0971C20.4112 12.4919 19.7537 12.7649 19.2687 13.2502C18.7838 13.7355 18.511 14.3936 18.5104 15.0799Z" fill="black" fill-opacity="0.5"/>
<path d="M4.35549 3.96336V3.92535C4.35549 3.92535 4.3552 3.93928 4.35549 3.96336Z" fill="black" fill-opacity="0.6"/>
<path d="M22.52 1.88273V4.98657H9.46524V1.88273C9.4667 1.38385 9.66544 0.905816 10.018 0.553053C10.3705 0.200291 10.8482 0.00146332 11.3468 0H20.6386C21.1371 0.00146332 21.6148 0.200291 21.9674 0.553053C22.3199 0.905816 22.5186 1.38385 22.52 1.88273Z" fill="black" fill-opacity="0.6"/>
<path d="M28.5847 13.6673H21.1017C20.32 13.6673 19.6864 14.3014 19.6864 15.0835V18.4804C19.6864 19.2625 20.32 19.8966 21.1017 19.8966H28.5847C29.3663 19.8966 30 19.2625 30 18.4804V15.0835C30 14.3014 29.3663 13.6673 28.5847 13.6673Z" fill="#1E1B4B" fill-opacity="0.6"/>
<path d="M10.0379 22.2128C10.0379 21.2245 9.78378 20.4122 9.28312 19.7998C8.82468 19.2321 8.23165 18.7882 7.558 18.5084C6.7642 18.1989 5.94952 17.946 5.12005 17.7516C3.98663 17.4696 3.50425 17.2324 3.2995 17.0832C3.15974 16.9815 2.99958 16.8094 2.99958 16.3751C2.9923 16.1961 3.02923 16.0181 3.10716 15.8568C3.18509 15.6955 3.30162 15.556 3.44635 15.4506C3.78838 15.1854 4.30733 15.0508 4.98926 15.0508C6.37637 15.0508 7.04687 15.549 7.16363 16.7594C7.17958 16.901 7.24936 17.031 7.35857 17.1225C7.46777 17.214 7.60798 17.2599 7.75011 17.2508H9.18372C9.26026 17.2582 9.33748 17.2497 9.41056 17.2258C9.48364 17.2018 9.55096 17.163 9.60826 17.1116C9.6629 17.0586 9.70579 16.9946 9.73409 16.9239C9.7624 16.8532 9.77549 16.7773 9.77256 16.7012C9.7209 15.3342 9.24081 14.2628 8.34552 13.4963C7.73834 12.9876 7.01006 12.6447 6.23139 12.5006V11.044C6.23136 10.9699 6.20193 10.8989 6.14956 10.8465C6.09718 10.7941 6.02614 10.7647 5.95209 10.7647H4.52182C4.48515 10.7647 4.44887 10.7719 4.41499 10.7859C4.38111 10.7999 4.35028 10.8205 4.32435 10.8465C4.29841 10.8724 4.27786 10.9032 4.26382 10.9371C4.24978 10.971 4.24257 11.0073 4.24257 11.044V12.413C3.21188 12.5242 2.34373 12.8886 1.66215 13.5062C0.816154 14.2719 0.38731 15.2635 0.38731 16.451C0.38731 17.5151 0.726278 18.388 1.39453 19.044C2.03142 19.6695 3.01715 20.1368 4.40756 20.4713C5.61422 20.7618 6.46278 21.0522 6.92971 21.3343C7.16075 21.4739 7.42624 21.7146 7.42624 22.3401C7.43687 22.5514 7.39469 22.762 7.30346 22.9529C7.21222 23.1437 7.07486 23.3088 6.90379 23.4331C6.50798 23.7349 5.95826 23.8878 5.26972 23.8878C4.52126 23.8878 3.90676 23.7045 3.39124 23.3276C2.91771 22.9815 2.65752 22.4654 2.59548 21.699C2.58247 21.5538 2.51436 21.4192 2.4051 21.3229C2.29583 21.2266 2.15376 21.1759 2.00825 21.1813H0.589676C0.512286 21.1769 0.434828 21.1883 0.362029 21.215C0.28923 21.2416 0.222648 21.2829 0.166401 21.3363C0.111719 21.3907 0.0688066 21.4558 0.040397 21.5275C0.0119875 21.5993 -0.00129811 21.6761 0.00129446 21.7532C0.0464659 23.147 0.514889 24.3039 1.39367 25.2043C2.08374 25.9115 3.04145 26.342 4.24303 26.5002V27.7198C4.24303 27.7565 4.25025 27.7929 4.26428 27.8268C4.27832 27.8607 4.29887 27.8915 4.32481 27.9174C4.35074 27.9433 4.38157 27.9639 4.41545 27.9779C4.44934 27.992 4.48567 27.9992 4.52234 27.9992H5.9526C6.02665 27.9992 6.09764 27.9697 6.15002 27.9174C6.20239 27.865 6.23182 27.7939 6.23185 27.7198V26.5043C7.1593 26.3822 8.02584 25.9745 8.71144 25.3377C9.14135 24.9407 9.48201 24.4568 9.71071 23.918C9.93941 23.3793 10.0509 22.798 10.0379 22.2128Z" fill="#1E1B4B" fill-opacity="0.6"/>
<path d="M21.416 17.921C22.0318 17.921 22.531 17.4215 22.531 16.8053C22.531 16.1891 22.0318 15.6895 21.416 15.6895C20.8002 15.6895 20.301 16.1891 20.301 16.8053C20.301 17.4215 20.8002 17.921 21.416 17.921Z" fill="white"/>
</g>
<defs>
<clipPath id="clip0_102_6">
<rect width="30" height="28" fill="white"/>
</clipPath>
</defs>
</svg>
